# MagicaVoxel @ Ephtracy

# group
o 

# material
mtllib Ball.mtl
usemtl palette

# normals
vn -1 0 0
vn 1 0 0
vn 0 0 1
vn 0 0 -1
vn 0 -1 0
vn 0 1 0

# texcoords
vt 0.0214844 0.5
vt 0.123047 0.5
vt 0.841797 0.5
vt 0.880859 0.5
vt 0.919922 0.5

# verts
v -0.5 0 0.6
v -0.5 0 -1.19209e-07
v -0.5 0 -0.2
v -0.5 0 -0.8
v -0.5 0.4 0.6
v -0.5 0.4 -1.19209e-07
v -0.5 0.6 -0.2
v -0.5 0.6 -0.8
v 0.3 0 0.9
v 0.3 0 0.8
v 0.3 0 0.0999999
v 0.3 0 -0.5
v 0.3 0.3 0.0999999
v 0.3 0.3 -0.5
v 0.3 0.6 0.9
v 0.3 0.6 0.8
v 0.4 0 1
v 0.4 0 0.9
v 0.4 0 0.8
v 0.4 0 0.7
v 0.4 0 -1
v 0.4 0 -1.6
v 0.4 0.6 1
v 0.4 0.6 0.9
v 0.4 0.6 0.8
v 0.4 0.6 0.7
v 0.4 0.9 -1
v 0.4 0.9 -1.6
v 0.5 0 1.1
v 0.5 0 1
v 0.5 0 0.7
v 0.5 0 0.6
v 0.5 0 -0.9
v 0.5 0 -1
v 0.5 0 -1.6
v 0.5 0 -1.7
v 0.5 0.6 1.1
v 0.5 0.6 1
v 0.5 0.6 0.7
v 0.5 0.6 0.6
v 0.5 0.9 -0.9
v 0.5 0.9 -1
v 0.5 0.9 -1.6
v 0.5 0.9 -1.7
v 0.6 0 1.2
v 0.6 0 1.1
v 0.6 0 0.6
v 0.6 0 0.5
v 0.6 0 -0.8
v 0.6 0 -0.9
v 0.6 0 -1.7
v 0.6 0 -1.8
v 0.6 0.6 1.2
v 0.6 0.6 1.1
v 0.6 0.6 0.6
v 0.6 0.6 0.5
v 0.6 0.9 -0.8
v 0.6 0.9 -0.9
v 0.6 0.9 -1.7
v 0.6 0.9 -1.8
v 0.1 0 0.6
v 0.1 0 -1.19209e-07
v 0.1 0 -0.2
v 0.1 0 -0.8
v 0.1 0.4 0.6
v 0.1 0.4 -1.19209e-07
v 0.1 0.6 -0.2
v 0.1 0.6 -0.8
v 0.7 0 1.2
v 0.7 0 1.1
v 0.7 0 0.6
v 0.7 0 0.5
v 0.7 0.6 1.2
v 0.7 0.6 1.1
v 0.7 0.6 0.6
v 0.7 0.6 0.5
v 0.8 0 1.1
v 0.8 0 1
v 0.8 0 0.7
v 0.8 0 0.6
v 0.8 0.6 1.1
v 0.8 0.6 1
v 0.8 0.6 0.7
v 0.8 0.6 0.6
v 0.9 0 1
v 0.9 0 0.9
v 0.9 0 0.8
v 0.9 0 0.7
v 0.9 0 0.0999999
v 0.9 0 -0.5
v 0.9 0.3 0.0999999
v 0.9 0.3 -0.5
v 0.9 0.6 1
v 0.9 0.6 0.9
v 0.9 0.6 0.8
v 0.9 0.6 0.7
v 1 0 0.9
v 1 0 0.8
v 1 0.6 0.9
v 1 0.6 0.8
v 1.1 0 -0.8
v 1.1 0 -0.9
v 1.1 0 -1.7
v 1.1 0 -1.8
v 1.1 0.9 -0.8
v 1.1 0.9 -0.9
v 1.1 0.9 -1.7
v 1.1 0.9 -1.8
v 1.2 0 -0.9
v 1.2 0 -1
v 1.2 0 -1.6
v 1.2 0 -1.7
v 1.2 0.9 -0.9
v 1.2 0.9 -1
v 1.2 0.9 -1.6
v 1.2 0.9 -1.7
v 1.3 0 -1
v 1.3 0 -1.6
v 1.3 0.9 -1
v 1.3 0.9 -1.6
v 0.6 0 1.2
v 0.6 0.6 1.2
v 0.7 0 1.2
v 0.7 0.6 1.2
v 0.5 0 1.1
v 0.5 0.6 1.1
v 0.6 0 1.1
v 0.6 0.6 1.1
v 0.7 0 1.1
v 0.7 0.6 1.1
v 0.8 0 1.1
v 0.8 0.6 1.1
v 0.4 0 1
v 0.4 0.6 1
v 0.5 0 1
v 0.5 0.6 1
v 0.8 0 1
v 0.8 0.6 1
v 0.9 0 1
v 0.9 0.6 1
v 0.3 0 0.9
v 0.3 0.6 0.9
v 0.4 0 0.9
v 0.4 0.6 0.9
v 0.9 0 0.9
v 0.9 0.6 0.9
v 1 0 0.9
v 1 0.6 0.9
v -0.5 0 0.6
v -0.5 0.4 0.6
v 0.1 0 0.6
v 0.1 0.4 0.6
v 0.3 0 0.0999999
v 0.3 0.3 0.0999999
v 0.9 0 0.0999999
v 0.9 0.3 0.0999999
v -0.5 0 -0.2
v -0.5 0.6 -0.2
v 0.1 0 -0.2
v 0.1 0.6 -0.2
v 0.6 0 -0.8
v 0.6 0.9 -0.8
v 1.1 0 -0.8
v 1.1 0.9 -0.8
v 0.5 0 -0.9
v 0.5 0.9 -0.9
v 0.6 0 -0.9
v 0.6 0.9 -0.9
v 1.1 0 -0.9
v 1.1 0.9 -0.9
v 1.2 0 -0.9
v 1.2 0.9 -0.9
v 0.4 0 -1
v 0.4 0.9 -1
v 0.5 0 -1
v 0.5 0.9 -1
v 1.2 0 -1
v 1.2 0.9 -1
v 1.3 0 -1
v 1.3 0.9 -1
v 0.3 0 0.8
v 0.3 0.6 0.8
v 0.4 0 0.8
v 0.4 0.6 0.8
v 0.9 0 0.8
v 0.9 0.6 0.8
v 1 0 0.8
v 1 0.6 0.8
v 0.4 0 0.7
v 0.4 0.6 0.7
v 0.5 0 0.7
v 0.5 0.6 0.7
v 0.8 0 0.7
v 0.8 0.6 0.7
v 0.9 0 0.7
v 0.9 0.6 0.7
v 0.5 0 0.6
v 0.5 0.6 0.6
v 0.6 0 0.6
v 0.6 0.6 0.6
v 0.7 0 0.6
v 0.7 0.6 0.6
v 0.8 0 0.6
v 0.8 0.6 0.6
v 0.6 0 0.5
v 0.6 0.6 0.5
v 0.7 0 0.5
v 0.7 0.6 0.5
v -0.5 0 -1.19209e-07
v -0.5 0.4 -1.19209e-07
v 0.1 0 -1.19209e-07
v 0.1 0.4 -1.19209e-07
v 0.3 0 -0.5
v 0.3 0.3 -0.5
v 0.9 0 -0.5
v 0.9 0.3 -0.5
v -0.5 0 -0.8
v -0.5 0.6 -0.8
v 0.1 0 -0.8
v 0.1 0.6 -0.8
v 0.4 0 -1.6
v 0.4 0.9 -1.6
v 0.5 0 -1.6
v 0.5 0.9 -1.6
v 1.2 0 -1.6
v 1.2 0.9 -1.6
v 1.3 0 -1.6
v 1.3 0.9 -1.6
v 0.5 0 -1.7
v 0.5 0.9 -1.7
v 0.6 0 -1.7
v 0.6 0.9 -1.7
v 1.1 0 -1.7
v 1.1 0.9 -1.7
v 1.2 0 -1.7
v 1.2 0.9 -1.7
v 0.6 0 -1.8
v 0.6 0.9 -1.8
v 1.1 0 -1.8
v 1.1 0.9 -1.8
v 0.6 0 1.2
v 0.7 0 1.2
v 0.5 0 1.1
v 0.6 0 1.1
v 0.7 0 1.1
v 0.8 0 1.1
v 0.4 0 1
v 0.5 0 1
v 0.8 0 1
v 0.9 0 1
v 0.3 0 0.9
v 0.4 0 0.9
v 0.9 0 0.9
v 1 0 0.9
v 0.3 0 0.8
v 0.4 0 0.8
v 0.9 0 0.8
v 1 0 0.8
v 0.4 0 0.7
v 0.5 0 0.7
v 0.8 0 0.7
v 0.9 0 0.7
v -0.5 0 0.6
v 0.1 0 0.6
v 0.5 0 0.6
v 0.6 0 0.6
v 0.7 0 0.6
v 0.8 0 0.6
v 0.6 0 0.5
v 0.7 0 0.5
v 0.3 0 0.0999999
v 0.9 0 0.0999999
v -0.5 0 -1.19209e-07
v 0.1 0 -1.19209e-07
v -0.5 0 -0.2
v 0.1 0 -0.2
v 0.3 0 -0.5
v 0.9 0 -0.5
v -0.5 0 -0.8
v 0.1 0 -0.8
v 0.6 0 -0.8
v 1.1 0 -0.8
v 0.5 0 -0.9
v 0.6 0 -0.9
v 1.1 0 -0.9
v 1.2 0 -0.9
v 0.4 0 -1
v 0.5 0 -1
v 1.2 0 -1
v 1.3 0 -1
v 0.4 0 -1.6
v 0.5 0 -1.6
v 1.2 0 -1.6
v 1.3 0 -1.6
v 0.5 0 -1.7
v 0.6 0 -1.7
v 1.1 0 -1.7
v 1.2 0 -1.7
v 0.6 0 -1.8
v 1.1 0 -1.8
v 0.3 0.3 0.0999999
v 0.9 0.3 0.0999999
v 0.3 0.3 -0.5
v 0.9 0.3 -0.5
v -0.5 0.4 0.6
v 0.1 0.4 0.6
v -0.5 0.4 -1.19209e-07
v 0.1 0.4 -1.19209e-07
v 0.6 0.6 1.2
v 0.7 0.6 1.2
v 0.5 0.6 1.1
v 0.6 0.6 1.1
v 0.7 0.6 1.1
v 0.8 0.6 1.1
v 0.4 0.6 1
v 0.5 0.6 1
v 0.8 0.6 1
v 0.9 0.6 1
v 0.3 0.6 0.9
v 0.4 0.6 0.9
v 0.9 0.6 0.9
v 1 0.6 0.9
v 0.3 0.6 0.8
v 0.4 0.6 0.8
v 0.9 0.6 0.8
v 1 0.6 0.8
v 0.4 0.6 0.7
v 0.5 0.6 0.7
v 0.8 0.6 0.7
v 0.9 0.6 0.7
v 0.5 0.6 0.6
v 0.6 0.6 0.6
v 0.7 0.6 0.6
v 0.8 0.6 0.6
v 0.6 0.6 0.5
v 0.7 0.6 0.5
v -0.5 0.6 -0.2
v 0.1 0.6 -0.2
v -0.5 0.6 -0.8
v 0.1 0.6 -0.8
v 0.6 0.9 -0.8
v 1.1 0.9 -0.8
v 0.5 0.9 -0.9
v 0.6 0.9 -0.9
v 1.1 0.9 -0.9
v 1.2 0.9 -0.9
v 0.4 0.9 -1
v 0.5 0.9 -1
v 1.2 0.9 -1
v 1.3 0.9 -1
v 0.4 0.9 -1.6
v 0.5 0.9 -1.6
v 1.2 0.9 -1.6
v 1.3 0.9 -1.6
v 0.5 0.9 -1.7
v 0.6 0.9 -1.7
v 1.1 0.9 -1.7
v 1.2 0.9 -1.7
v 0.6 0.9 -1.8
v 1.1 0.9 -1.8

# faces
f 5/5/1 2/5/1 1/5/1
f 6/5/1 2/5/1 5/5/1
f 7/3/1 4/3/1 3/3/1
f 8/3/1 4/3/1 7/3/1
f 13/4/1 12/4/1 11/4/1
f 14/4/1 12/4/1 13/4/1
f 15/2/1 10/2/1 9/2/1
f 16/2/1 10/2/1 15/2/1
f 23/2/1 18/2/1 17/2/1
f 24/2/1 18/2/1 23/2/1
f 25/2/1 20/2/1 19/2/1
f 26/2/1 20/2/1 25/2/1
f 27/1/1 22/1/1 21/1/1
f 28/1/1 22/1/1 27/1/1
f 37/2/1 30/2/1 29/2/1
f 38/2/1 30/2/1 37/2/1
f 39/2/1 32/2/1 31/2/1
f 40/2/1 32/2/1 39/2/1
f 41/1/1 34/1/1 33/1/1
f 42/1/1 34/1/1 41/1/1
f 43/1/1 36/1/1 35/1/1
f 44/1/1 36/1/1 43/1/1
f 53/2/1 46/2/1 45/2/1
f 54/2/1 46/2/1 53/2/1
f 55/2/1 48/2/1 47/2/1
f 56/2/1 48/2/1 55/2/1
f 57/1/1 50/1/1 49/1/1
f 58/1/1 50/1/1 57/1/1
f 59/1/1 52/1/1 51/1/1
f 60/1/1 52/1/1 59/1/1
f 61/5/2 62/5/2 65/5/2
f 65/5/2 62/5/2 66/5/2
f 63/3/2 64/3/2 67/3/2
f 67/3/2 64/3/2 68/3/2
f 69/2/2 70/2/2 73/2/2
f 73/2/2 70/2/2 74/2/2
f 71/2/2 72/2/2 75/2/2
f 75/2/2 72/2/2 76/2/2
f 77/2/2 78/2/2 81/2/2
f 81/2/2 78/2/2 82/2/2
f 79/2/2 80/2/2 83/2/2
f 83/2/2 80/2/2 84/2/2
f 89/4/2 90/4/2 91/4/2
f 91/4/2 90/4/2 92/4/2
f 85/2/2 86/2/2 93/2/2
f 93/2/2 86/2/2 94/2/2
f 87/2/2 88/2/2 95/2/2
f 95/2/2 88/2/2 96/2/2
f 97/2/2 98/2/2 99/2/2
f 99/2/2 98/2/2 100/2/2
f 101/1/2 102/1/2 105/1/2
f 105/1/2 102/1/2 106/1/2
f 103/1/2 104/1/2 107/1/2
f 107/1/2 104/1/2 108/1/2
f 109/1/2 110/1/2 113/1/2
f 113/1/2 110/1/2 114/1/2
f 111/1/2 112/1/2 115/1/2
f 115/1/2 112/1/2 116/1/2
f 117/1/2 118/1/2 119/1/2
f 119/1/2 118/1/2 120/1/2
f 123/2/3 122/2/3 121/2/3
f 124/2/3 122/2/3 123/2/3
f 127/2/3 126/2/3 125/2/3
f 128/2/3 126/2/3 127/2/3
f 131/2/3 130/2/3 129/2/3
f 132/2/3 130/2/3 131/2/3
f 135/2/3 134/2/3 133/2/3
f 136/2/3 134/2/3 135/2/3
f 139/2/3 138/2/3 137/2/3
f 140/2/3 138/2/3 139/2/3
f 143/2/3 142/2/3 141/2/3
f 144/2/3 142/2/3 143/2/3
f 147/2/3 146/2/3 145/2/3
f 148/2/3 146/2/3 147/2/3
f 151/5/3 150/5/3 149/5/3
f 152/5/3 150/5/3 151/5/3
f 155/4/3 154/4/3 153/4/3
f 156/4/3 154/4/3 155/4/3
f 159/3/3 158/3/3 157/3/3
f 160/3/3 158/3/3 159/3/3
f 163/1/3 162/1/3 161/1/3
f 164/1/3 162/1/3 163/1/3
f 167/1/3 166/1/3 165/1/3
f 168/1/3 166/1/3 167/1/3
f 171/1/3 170/1/3 169/1/3
f 172/1/3 170/1/3 171/1/3
f 175/1/3 174/1/3 173/1/3
f 176/1/3 174/1/3 175/1/3
f 179/1/3 178/1/3 177/1/3
f 180/1/3 178/1/3 179/1/3
f 181/2/4 182/2/4 183/2/4
f 183/2/4 182/2/4 184/2/4
f 185/2/4 186/2/4 187/2/4
f 187/2/4 186/2/4 188/2/4
f 189/2/4 190/2/4 191/2/4
f 191/2/4 190/2/4 192/2/4
f 193/2/4 194/2/4 195/2/4
f 195/2/4 194/2/4 196/2/4
f 197/2/4 198/2/4 199/2/4
f 199/2/4 198/2/4 200/2/4
f 201/2/4 202/2/4 203/2/4
f 203/2/4 202/2/4 204/2/4
f 205/2/4 206/2/4 207/2/4
f 207/2/4 206/2/4 208/2/4
f 209/5/4 210/5/4 211/5/4
f 211/5/4 210/5/4 212/5/4
f 213/4/4 214/4/4 215/4/4
f 215/4/4 214/4/4 216/4/4
f 217/3/4 218/3/4 219/3/4
f 219/3/4 218/3/4 220/3/4
f 221/1/4 222/1/4 223/1/4
f 223/1/4 222/1/4 224/1/4
f 225/1/4 226/1/4 227/1/4
f 227/1/4 226/1/4 228/1/4
f 229/1/4 230/1/4 231/1/4
f 231/1/4 230/1/4 232/1/4
f 233/1/4 234/1/4 235/1/4
f 235/1/4 234/1/4 236/1/4
f 237/1/4 238/1/4 239/1/4
f 239/1/4 238/1/4 240/1/4
f 244/2/5 242/2/5 241/2/5
f 245/2/5 242/2/5 244/2/5
f 248/2/5 244/2/5 243/2/5
f 248/2/5 246/2/5 245/2/5
f 248/2/5 245/2/5 244/2/5
f 249/2/5 246/2/5 248/2/5
f 252/2/5 248/2/5 247/2/5
f 252/2/5 250/2/5 249/2/5
f 252/2/5 249/2/5 248/2/5
f 253/2/5 250/2/5 252/2/5
f 255/2/5 252/2/5 251/2/5
f 255/2/5 254/2/5 253/2/5
f 255/2/5 253/2/5 252/2/5
f 256/2/5 254/2/5 255/2/5
f 257/2/5 254/2/5 256/2/5
f 258/2/5 254/2/5 257/2/5
f 259/2/5 257/2/5 256/2/5
f 260/2/5 257/2/5 259/2/5
f 261/2/5 257/2/5 260/2/5
f 262/2/5 257/2/5 261/2/5
f 265/2/5 261/2/5 260/2/5
f 266/2/5 261/2/5 265/2/5
f 267/2/5 261/2/5 266/2/5
f 268/2/5 261/2/5 267/2/5
f 269/2/5 267/2/5 266/2/5
f 270/2/5 267/2/5 269/2/5
f 273/5/5 264/5/5 263/5/5
f 274/5/5 264/5/5 273/5/5
f 277/4/5 272/4/5 271/4/5
f 278/4/5 272/4/5 277/4/5
f 279/3/5 276/3/5 275/3/5
f 280/3/5 276/3/5 279/3/5
f 284/1/5 282/1/5 281/1/5
f 285/1/5 282/1/5 284/1/5
f 288/1/5 284/1/5 283/1/5
f 288/1/5 286/1/5 285/1/5
f 288/1/5 285/1/5 284/1/5
f 289/1/5 286/1/5 288/1/5
f 291/1/5 288/1/5 287/1/5
f 291/1/5 290/1/5 289/1/5
f 291/1/5 289/1/5 288/1/5
f 292/1/5 290/1/5 291/1/5
f 293/1/5 290/1/5 292/1/5
f 294/1/5 290/1/5 293/1/5
f 295/1/5 293/1/5 292/1/5
f 296/1/5 293/1/5 295/1/5
f 297/1/5 293/1/5 296/1/5
f 298/1/5 293/1/5 297/1/5
f 299/1/5 297/1/5 296/1/5
f 300/1/5 297/1/5 299/1/5
f 301/4/6 302/4/6 303/4/6
f 303/4/6 302/4/6 304/4/6
f 305/5/6 306/5/6 307/5/6
f 307/5/6 306/5/6 308/5/6
f 309/2/6 310/2/6 312/2/6
f 312/2/6 310/2/6 313/2/6
f 311/2/6 312/2/6 316/2/6
f 313/2/6 314/2/6 316/2/6
f 312/2/6 313/2/6 316/2/6
f 316/2/6 314/2/6 317/2/6
f 315/2/6 316/2/6 320/2/6
f 317/2/6 318/2/6 320/2/6
f 316/2/6 317/2/6 320/2/6
f 320/2/6 318/2/6 321/2/6
f 319/2/6 320/2/6 323/2/6
f 321/2/6 322/2/6 323/2/6
f 320/2/6 321/2/6 323/2/6
f 323/2/6 322/2/6 324/2/6
f 324/2/6 322/2/6 325/2/6
f 325/2/6 322/2/6 326/2/6
f 324/2/6 325/2/6 327/2/6
f 327/2/6 325/2/6 328/2/6
f 328/2/6 325/2/6 329/2/6
f 329/2/6 325/2/6 330/2/6
f 328/2/6 329/2/6 331/2/6
f 331/2/6 329/2/6 332/2/6
f 332/2/6 329/2/6 333/2/6
f 333/2/6 329/2/6 334/2/6
f 332/2/6 333/2/6 335/2/6
f 335/2/6 333/2/6 336/2/6
f 337/3/6 338/3/6 339/3/6
f 339/3/6 338/3/6 340/3/6
f 341/1/6 342/1/6 344/1/6
f 344/1/6 342/1/6 345/1/6
f 343/1/6 344/1/6 348/1/6
f 345/1/6 346/1/6 348/1/6
f 344/1/6 345/1/6 348/1/6
f 348/1/6 346/1/6 349/1/6
f 347/1/6 348/1/6 351/1/6
f 349/1/6 350/1/6 351/1/6
f 348/1/6 349/1/6 351/1/6
f 351/1/6 350/1/6 352/1/6
f 352/1/6 350/1/6 353/1/6
f 353/1/6 350/1/6 354/1/6
f 352/1/6 353/1/6 355/1/6
f 355/1/6 353/1/6 356/1/6
f 356/1/6 353/1/6 357/1/6
f 357/1/6 353/1/6 358/1/6
f 356/1/6 357/1/6 359/1/6
f 359/1/6 357/1/6 360/1/6
