# MagicaVoxel @ Ephtracy

# group
o 

# material
mtllib Drum.mtl
usemtl palette

# normals
vn -1 0 0
vn 1 0 0
vn 0 0 1
vn 0 0 -1
vn 0 -1 0
vn 0 1 0

# texcoords
vt 0.716797 0.5
vt 0.779297 0.5
vt 0.841797 0.5
vt 0.958984 0.5
vt 0.994141 0.5

# verts
v -0.6 0 0.2
v -0.6 0 -0.8
v -0.6 0.2 0.2
v -0.6 0.2 -0.1
v -0.6 0.2 -0.2
v -0.6 0.2 -0.5
v -0.6 0.2 -0.6
v -0.6 0.2 -0.8
v -0.6 0.7 0.2
v -0.6 0.7 -0.1
v -0.6 0.7 -0.2
v -0.6 0.7 -0.5
v -0.6 0.7 -0.6
v -0.6 0.7 -0.8
v -0.6 0.9 0.2
v -0.6 0.9 -0.8
v -0.5 0 0.3
v -0.5 0 0.2
v -0.5 0 -0.8
v -0.5 0 -0.9
v -0.5 0.2 0.3
v -0.5 0.2 0.2
v -0.5 0.2 -0.1
v -0.5 0.2 -0.2
v -0.5 0.2 -0.5
v -0.5 0.2 -0.6
v -0.5 0.2 -0.8
v -0.5 0.2 -0.9
v -0.5 0.7 0.3
v -0.5 0.7 0.2
v -0.5 0.7 -0.1
v -0.5 0.7 -0.2
v -0.5 0.7 -0.5
v -0.5 0.7 -0.6
v -0.5 0.7 -0.8
v -0.5 0.7 -0.9
v -0.5 0.9 0.3
v -0.5 0.9 0.2
v -0.5 0.9 -0.8
v -0.5 0.9 -0.9
v -0.3 0.2 0.3
v -0.3 0.2 0.2
v -0.3 0.2 -0.8
v -0.3 0.2 -0.9
v -0.3 0.7 0.3
v -0.3 0.7 0.2
v -0.3 0.7 -0.8
v -0.3 0.7 -0.9
v -0.3 0.9 -0.4
v -0.3 0.9 -0.6
v -0.3 1 -0.4
v -0.3 1 -0.6
v -0.0999999 0.9 -0.1
v -0.0999999 0.9 -0.3
v -0.0999999 1 -0.1
v -0.0999999 1 -0.3
v 5.96046e-08 0.9 -0.6
v 5.96046e-08 0.9 -0.7
v 5.96046e-08 1 -0.6
v 5.96046e-08 1 -0.7
v 0.1 0.2 0.3
v 0.1 0.2 0.2
v 0.1 0.2 -0.8
v 0.1 0.2 -0.9
v 0.1 0.7 0.3
v 0.1 0.7 0.2
v 0.1 0.7 -0.8
v 0.1 0.7 -0.9
v 0.1 0.9 -0.3
v 0.1 0.9 -0.4
v 0.1 0.9 -0.7
v 0.1 0.9 -0.8
v 0.1 1 -0.3
v 0.1 1 -0.4
v 0.1 1 -0.7
v 0.1 1 -0.8
v 0.2 0.9 -0.4
v 0.2 0.9 -0.5
v 0.2 1 -0.4
v 0.2 1 -0.5
v 0.3 0.9 -0.5
v 0.3 0.9 -0.6
v 0.3 1 -0.5
v 0.3 1 -0.6
v -0.2 0.2 0.3
v -0.2 0.2 0.2
v -0.2 0.2 -0.8
v -0.2 0.2 -0.9
v -0.2 0.7 0.3
v -0.2 0.7 0.2
v -0.2 0.7 -0.8
v -0.2 0.7 -0.9
v -0.0999999 0.9 -0.4
v -0.0999999 0.9 -0.5
v -0.0999999 1 -0.4
v -0.0999999 1 -0.5
v 5.96046e-08 0.9 -0.5
v 5.96046e-08 0.9 -0.6
v 5.96046e-08 1 -0.5
v 5.96046e-08 1 -0.6
v 0.1 0.9 -0.1
v 0.1 0.9 -0.3
v 0.1 0.9 -0.6
v 0.1 0.9 -0.7
v 0.1 1 -0.1
v 0.1 1 -0.3
v 0.1 1 -0.6
v 0.1 1 -0.7
v 0.2 0.2 0.3
v 0.2 0.2 0.2
v 0.2 0.2 -0.8
v 0.2 0.2 -0.9
v 0.2 0.7 0.3
v 0.2 0.7 0.2
v 0.2 0.7 -0.8
v 0.2 0.7 -0.9
v 0.2 0.9 -0.3
v 0.2 0.9 -0.4
v 0.2 0.9 -0.7
v 0.2 0.9 -0.8
v 0.2 1 -0.3
v 0.2 1 -0.4
v 0.2 1 -0.7
v 0.2 1 -0.8
v 0.3 0.9 -0.4
v 0.3 0.9 -0.5
v 0.3 1 -0.4
v 0.3 1 -0.5
v 0.4 0 0.3
v 0.4 0 0.2
v 0.4 0 -0.8
v 0.4 0 -0.9
v 0.4 0.2 0.3
v 0.4 0.2 0.2
v 0.4 0.2 -2.98023e-08
v 0.4 0.2 -0.1
v 0.4 0.2 -0.5
v 0.4 0.2 -0.6
v 0.4 0.2 -0.8
v 0.4 0.2 -0.9
v 0.4 0.7 0.3
v 0.4 0.7 0.2
v 0.4 0.7 -2.98023e-08
v 0.4 0.7 -0.1
v 0.4 0.7 -0.5
v 0.4 0.7 -0.6
v 0.4 0.7 -0.8
v 0.4 0.7 -0.9
v 0.4 0.9 0.3
v 0.4 0.9 0.2
v 0.4 0.9 -0.5
v 0.4 0.9 -0.6
v 0.4 0.9 -0.8
v 0.4 0.9 -0.9
v 0.4 1 -0.5
v 0.4 1 -0.6
v 0.5 0 0.2
v 0.5 0 -0.8
v 0.5 0.2 0.2
v 0.5 0.2 -2.98023e-08
v 0.5 0.2 -0.1
v 0.5 0.2 -0.5
v 0.5 0.2 -0.6
v 0.5 0.2 -0.8
v 0.5 0.7 0.2
v 0.5 0.7 -2.98023e-08
v 0.5 0.7 -0.1
v 0.5 0.7 -0.5
v 0.5 0.7 -0.6
v 0.5 0.7 -0.8
v 0.5 0.9 0.2
v 0.5 0.9 -0.8
v -0.5 0 0.3
v -0.5 0.2 0.3
v -0.5 0.7 0.3
v -0.5 0.9 0.3
v -0.3 0.2 0.3
v -0.3 0.7 0.3
v -0.2 0.2 0.3
v -0.2 0.7 0.3
v 0.1 0.2 0.3
v 0.1 0.7 0.3
v 0.2 0.2 0.3
v 0.2 0.7 0.3
v 0.4 0 0.3
v 0.4 0.2 0.3
v 0.4 0.7 0.3
v 0.4 0.9 0.3
v -0.6 0 0.2
v -0.6 0.2 0.2
v -0.6 0.7 0.2
v -0.6 0.9 0.2
v -0.5 0 0.2
v -0.5 0.2 0.2
v -0.5 0.7 0.2
v -0.5 0.9 0.2
v -0.3 0.2 0.2
v -0.3 0.7 0.2
v -0.2 0.2 0.2
v -0.2 0.7 0.2
v 0.1 0.2 0.2
v 0.1 0.7 0.2
v 0.2 0.2 0.2
v 0.2 0.7 0.2
v 0.4 0 0.2
v 0.4 0.2 0.2
v 0.4 0.7 0.2
v 0.4 0.9 0.2
v 0.5 0 0.2
v 0.5 0.2 0.2
v 0.5 0.7 0.2
v 0.5 0.9 0.2
v 0.4 0.2 -2.98023e-08
v 0.4 0.7 -2.98023e-08
v 0.5 0.2 -2.98023e-08
v 0.5 0.7 -2.98023e-08
v -0.6 0.2 -0.1
v -0.6 0.7 -0.1
v -0.5 0.2 -0.1
v -0.5 0.7 -0.1
v -0.0999999 0.9 -0.1
v -0.0999999 1 -0.1
v 0.1 0.9 -0.1
v 0.1 1 -0.1
v 0.1 0.9 -0.3
v 0.1 1 -0.3
v 0.2 0.9 -0.3
v 0.2 1 -0.3
v -0.3 0.9 -0.4
v -0.3 1 -0.4
v -0.0999999 0.9 -0.4
v -0.0999999 1 -0.4
v 0.2 0.9 -0.4
v 0.2 1 -0.4
v 0.3 0.9 -0.4
v 0.3 1 -0.4
v -0.6 0.2 -0.5
v -0.6 0.7 -0.5
v -0.5 0.2 -0.5
v -0.5 0.7 -0.5
v -0.0999999 0.9 -0.5
v -0.0999999 1 -0.5
v 5.96046e-08 0.9 -0.5
v 5.96046e-08 1 -0.5
v 0.3 0.9 -0.5
v 0.3 1 -0.5
v 0.4 0.2 -0.5
v 0.4 0.7 -0.5
v 0.4 0.9 -0.5
v 0.4 1 -0.5
v 0.5 0.2 -0.5
v 0.5 0.7 -0.5
v 5.96046e-08 0.9 -0.6
v 5.96046e-08 1 -0.6
v 0.1 0.9 -0.6
v 0.1 1 -0.6
v 0.1 0.9 -0.7
v 0.1 1 -0.7
v 0.2 0.9 -0.7
v 0.2 1 -0.7
v 0.4 0.2 -0.1
v 0.4 0.7 -0.1
v 0.5 0.2 -0.1
v 0.5 0.7 -0.1
v -0.6 0.2 -0.2
v -0.6 0.7 -0.2
v -0.5 0.2 -0.2
v -0.5 0.7 -0.2
v -0.0999999 0.9 -0.3
v -0.0999999 1 -0.3
v 0.1 0.9 -0.3
v 0.1 1 -0.3
v 0.1 0.9 -0.4
v 0.1 1 -0.4
v 0.2 0.9 -0.4
v 0.2 1 -0.4
v 0.2 0.9 -0.5
v 0.2 1 -0.5
v 0.3 0.9 -0.5
v 0.3 1 -0.5
v -0.6 0.2 -0.6
v -0.6 0.7 -0.6
v -0.5 0.2 -0.6
v -0.5 0.7 -0.6
v -0.3 0.9 -0.6
v -0.3 1 -0.6
v 5.96046e-08 0.9 -0.6
v 5.96046e-08 1 -0.6
v 0.3 0.9 -0.6
v 0.3 1 -0.6
v 0.4 0.2 -0.6
v 0.4 0.7 -0.6
v 0.4 0.9 -0.6
v 0.4 1 -0.6
v 0.5 0.2 -0.6
v 0.5 0.7 -0.6
v 5.96046e-08 0.9 -0.7
v 5.96046e-08 1 -0.7
v 0.1 0.9 -0.7
v 0.1 1 -0.7
v -0.6 0 -0.8
v -0.6 0.2 -0.8
v -0.6 0.7 -0.8
v -0.6 0.9 -0.8
v -0.5 0 -0.8
v -0.5 0.2 -0.8
v -0.5 0.7 -0.8
v -0.5 0.9 -0.8
v -0.3 0.2 -0.8
v -0.3 0.7 -0.8
v -0.2 0.2 -0.8
v -0.2 0.7 -0.8
v 0.1 0.2 -0.8
v 0.1 0.7 -0.8
v 0.1 0.9 -0.8
v 0.1 1 -0.8
v 0.2 0.2 -0.8
v 0.2 0.7 -0.8
v 0.2 0.9 -0.8
v 0.2 1 -0.8
v 0.4 0 -0.8
v 0.4 0.2 -0.8
v 0.4 0.7 -0.8
v 0.4 0.9 -0.8
v 0.5 0 -0.8
v 0.5 0.2 -0.8
v 0.5 0.7 -0.8
v 0.5 0.9 -0.8
v -0.5 0 -0.9
v -0.5 0.2 -0.9
v -0.5 0.7 -0.9
v -0.5 0.9 -0.9
v -0.3 0.2 -0.9
v -0.3 0.7 -0.9
v -0.2 0.2 -0.9
v -0.2 0.7 -0.9
v 0.1 0.2 -0.9
v 0.1 0.7 -0.9
v 0.2 0.2 -0.9
v 0.2 0.7 -0.9
v 0.4 0 -0.9
v 0.4 0.2 -0.9
v 0.4 0.7 -0.9
v 0.4 0.9 -0.9
v -0.5 0 0.3
v 0.4 0 0.3
v -0.6 0 0.2
v -0.5 0 0.2
v 0.4 0 0.2
v 0.5 0 0.2
v -0.6 0 -0.8
v -0.5 0 -0.8
v 0.4 0 -0.8
v 0.5 0 -0.8
v -0.5 0 -0.9
v 0.4 0 -0.9
v -0.5 0.7 0.3
v -0.3 0.7 0.3
v -0.2 0.7 0.3
v 0.1 0.7 0.3
v 0.2 0.7 0.3
v 0.4 0.7 0.3
v -0.6 0.7 0.2
v -0.5 0.7 0.2
v -0.3 0.7 0.2
v -0.2 0.7 0.2
v 0.1 0.7 0.2
v 0.2 0.7 0.2
v 0.4 0.7 0.2
v 0.5 0.7 0.2
v 0.4 0.7 -2.98023e-08
v 0.5 0.7 -2.98023e-08
v -0.6 0.7 -0.1
v -0.5 0.7 -0.1
v 0.4 0.7 -0.1
v 0.5 0.7 -0.1
v -0.6 0.7 -0.2
v -0.5 0.7 -0.2
v -0.6 0.7 -0.5
v -0.5 0.7 -0.5
v 0.4 0.7 -0.5
v 0.5 0.7 -0.5
v -0.6 0.7 -0.6
v -0.5 0.7 -0.6
v 0.4 0.7 -0.6
v 0.5 0.7 -0.6
v -0.6 0.7 -0.8
v -0.5 0.7 -0.8
v -0.3 0.7 -0.8
v -0.2 0.7 -0.8
v 0.1 0.7 -0.8
v 0.2 0.7 -0.8
v 0.4 0.7 -0.8
v 0.5 0.7 -0.8
v -0.5 0.7 -0.9
v -0.3 0.7 -0.9
v -0.2 0.7 -0.9
v 0.1 0.7 -0.9
v 0.2 0.7 -0.9
v 0.4 0.7 -0.9
v -0.5 0.2 0.3
v -0.3 0.2 0.3
v -0.2 0.2 0.3
v 0.1 0.2 0.3
v 0.2 0.2 0.3
v 0.4 0.2 0.3
v -0.6 0.2 0.2
v -0.5 0.2 0.2
v -0.3 0.2 0.2
v -0.2 0.2 0.2
v 0.1 0.2 0.2
v 0.2 0.2 0.2
v 0.4 0.2 0.2
v 0.5 0.2 0.2
v 0.4 0.2 -2.98023e-08
v 0.5 0.2 -2.98023e-08
v -0.6 0.2 -0.1
v -0.5 0.2 -0.1
v 0.4 0.2 -0.1
v 0.5 0.2 -0.1
v -0.6 0.2 -0.2
v -0.5 0.2 -0.2
v -0.6 0.2 -0.5
v -0.5 0.2 -0.5
v 0.4 0.2 -0.5
v 0.5 0.2 -0.5
v -0.6 0.2 -0.6
v -0.5 0.2 -0.6
v 0.4 0.2 -0.6
v 0.5 0.2 -0.6
v -0.6 0.2 -0.8
v -0.5 0.2 -0.8
v -0.3 0.2 -0.8
v -0.2 0.2 -0.8
v 0.1 0.2 -0.8
v 0.2 0.2 -0.8
v 0.4 0.2 -0.8
v 0.5 0.2 -0.8
v -0.5 0.2 -0.9
v -0.3 0.2 -0.9
v -0.2 0.2 -0.9
v 0.1 0.2 -0.9
v 0.2 0.2 -0.9
v 0.4 0.2 -0.9
v -0.5 0.9 0.3
v 0.4 0.9 0.3
v -0.6 0.9 0.2
v -0.5 0.9 0.2
v 0.4 0.9 0.2
v 0.5 0.9 0.2
v -0.0999999 0.9 -0.1
v 0.1 0.9 -0.1
v -0.0999999 0.9 -0.3
v 0.1 0.9 -0.3
v 0.2 0.9 -0.3
v -0.3 0.9 -0.4
v -0.0999999 0.9 -0.4
v 0.1 0.9 -0.4
v 0.2 0.9 -0.4
v 0.3 0.9 -0.4
v -0.0999999 0.9 -0.5
v 5.96046e-08 0.9 -0.5
v 0.2 0.9 -0.5
v 0.3 0.9 -0.5
v 0.4 0.9 -0.5
v -0.3 0.9 -0.6
v 5.96046e-08 0.9 -0.6
v 0.1 0.9 -0.6
v 0.3 0.9 -0.6
v 0.4 0.9 -0.6
v 5.96046e-08 0.9 -0.7
v 0.1 0.9 -0.7
v 0.2 0.9 -0.7
v -0.6 0.9 -0.8
v -0.5 0.9 -0.8
v 0.1 0.9 -0.8
v 0.2 0.9 -0.8
v 0.4 0.9 -0.8
v 0.5 0.9 -0.8
v -0.5 0.9 -0.9
v 0.4 0.9 -0.9
v -0.0999999 1 -0.1
v 0.1 1 -0.1
v -0.0999999 1 -0.3
v 0.1 1 -0.3
v 0.2 1 -0.3
v -0.3 1 -0.4
v -0.0999999 1 -0.4
v 0.1 1 -0.4
v 0.2 1 -0.4
v 0.3 1 -0.4
v -0.0999999 1 -0.5
v 5.96046e-08 1 -0.5
v 0.2 1 -0.5
v 0.3 1 -0.5
v 0.4 1 -0.5
v -0.3 1 -0.6
v 5.96046e-08 1 -0.6
v 0.1 1 -0.6
v 0.3 1 -0.6
v 0.4 1 -0.6
v 5.96046e-08 1 -0.7
v 0.1 1 -0.7
v 0.2 1 -0.7
v 0.1 1 -0.8
v 0.2 1 -0.8

# faces
f 3/2/1 2/2/1 1/2/1
f 4/2/1 2/2/1 3/2/1
f 5/2/1 2/2/1 4/2/1
f 6/2/1 2/2/1 5/2/1
f 7/2/1 2/2/1 6/2/1
f 8/2/1 2/2/1 7/2/1
f 10/3/1 5/3/1 4/3/1
f 11/3/1 5/3/1 10/3/1
f 12/3/1 7/3/1 6/3/1
f 13/3/1 7/3/1 12/3/1
f 15/2/1 11/2/1 10/2/1
f 15/2/1 14/2/1 13/2/1
f 15/2/1 13/2/1 12/2/1
f 15/2/1 12/2/1 11/2/1
f 15/2/1 10/2/1 9/2/1
f 16/2/1 14/2/1 15/2/1
f 21/2/1 18/2/1 17/2/1
f 22/2/1 18/2/1 21/2/1
f 27/2/1 20/2/1 19/2/1
f 28/2/1 20/2/1 27/2/1
f 30/1/1 23/1/1 22/1/1
f 31/1/1 23/1/1 30/1/1
f 32/1/1 25/1/1 24/1/1
f 33/1/1 25/1/1 32/1/1
f 34/1/1 27/1/1 26/1/1
f 35/1/1 27/1/1 34/1/1
f 37/2/1 30/2/1 29/2/1
f 38/2/1 30/2/1 37/2/1
f 39/2/1 36/2/1 35/2/1
f 40/2/1 36/2/1 39/2/1
f 45/3/1 42/3/1 41/3/1
f 46/3/1 42/3/1 45/3/1
f 47/3/1 44/3/1 43/3/1
f 48/3/1 44/3/1 47/3/1
f 51/5/1 50/5/1 49/5/1
f 52/5/1 50/5/1 51/5/1
f 55/5/1 54/5/1 53/5/1
f 56/5/1 54/5/1 55/5/1
f 59/5/1 58/5/1 57/5/1
f 60/5/1 58/5/1 59/5/1
f 65/3/1 62/3/1 61/3/1
f 66/3/1 62/3/1 65/3/1
f 67/3/1 64/3/1 63/3/1
f 68/3/1 64/3/1 67/3/1
f 73/5/1 70/5/1 69/5/1
f 74/5/1 70/5/1 73/5/1
f 75/5/1 72/5/1 71/5/1
f 76/5/1 72/5/1 75/5/1
f 79/5/1 78/5/1 77/5/1
f 80/5/1 78/5/1 79/5/1
f 83/5/1 82/5/1 81/5/1
f 84/5/1 82/5/1 83/5/1
f 85/3/2 86/3/2 89/3/2
f 89/3/2 86/3/2 90/3/2
f 87/3/2 88/3/2 91/3/2
f 91/3/2 88/3/2 92/3/2
f 93/5/2 94/5/2 95/5/2
f 95/5/2 94/5/2 96/5/2
f 97/5/2 98/5/2 99/5/2
f 99/5/2 98/5/2 100/5/2
f 101/5/2 102/5/2 105/5/2
f 105/5/2 102/5/2 106/5/2
f 103/5/2 104/5/2 107/5/2
f 107/5/2 104/5/2 108/5/2
f 109/3/2 110/3/2 113/3/2
f 113/3/2 110/3/2 114/3/2
f 111/3/2 112/3/2 115/3/2
f 115/3/2 112/3/2 116/3/2
f 117/5/2 118/5/2 121/5/2
f 121/5/2 118/5/2 122/5/2
f 119/5/2 120/5/2 123/5/2
f 123/5/2 120/5/2 124/5/2
f 125/5/2 126/5/2 127/5/2
f 127/5/2 126/5/2 128/5/2
f 129/2/2 130/2/2 133/2/2
f 133/2/2 130/2/2 134/2/2
f 131/2/2 132/2/2 139/2/2
f 139/2/2 132/2/2 140/2/2
f 134/1/2 135/1/2 142/1/2
f 142/1/2 135/1/2 143/1/2
f 136/1/2 137/1/2 144/1/2
f 144/1/2 137/1/2 145/1/2
f 138/1/2 139/1/2 146/1/2
f 146/1/2 139/1/2 147/1/2
f 141/2/2 142/2/2 149/2/2
f 149/2/2 142/2/2 150/2/2
f 147/2/2 148/2/2 153/2/2
f 153/2/2 148/2/2 154/2/2
f 151/5/2 152/5/2 155/5/2
f 155/5/2 152/5/2 156/5/2
f 157/2/2 158/2/2 159/2/2
f 159/2/2 158/2/2 160/2/2
f 160/2/2 158/2/2 161/2/2
f 161/2/2 158/2/2 162/2/2
f 162/2/2 158/2/2 163/2/2
f 163/2/2 158/2/2 164/2/2
f 160/3/2 161/3/2 166/3/2
f 166/3/2 161/3/2 167/3/2
f 162/3/2 163/3/2 168/3/2
f 168/3/2 163/3/2 169/3/2
f 166/2/2 167/2/2 171/2/2
f 169/2/2 170/2/2 171/2/2
f 168/2/2 169/2/2 171/2/2
f 167/2/2 168/2/2 171/2/2
f 165/2/2 166/2/2 171/2/2
f 171/2/2 170/2/2 172/2/2
f 177/2/3 174/2/3 173/2/3
f 178/2/3 176/2/3 175/2/3
f 179/2/3 177/2/3 173/2/3
f 179/3/3 178/3/3 177/3/3
f 180/2/3 176/2/3 178/2/3
f 180/3/3 178/3/3 179/3/3
f 181/2/3 179/2/3 173/2/3
f 182/2/3 176/2/3 180/2/3
f 183/2/3 181/2/3 173/2/3
f 183/3/3 182/3/3 181/3/3
f 184/2/3 176/2/3 182/2/3
f 184/3/3 182/3/3 183/3/3
f 185/2/3 183/2/3 173/2/3
f 186/2/3 183/2/3 185/2/3
f 187/2/3 176/2/3 184/2/3
f 188/2/3 176/2/3 187/2/3
f 193/2/3 190/2/3 189/2/3
f 194/2/3 190/2/3 193/2/3
f 195/2/3 192/2/3 191/2/3
f 196/2/3 192/2/3 195/2/3
f 197/1/3 195/1/3 194/1/3
f 198/1/3 195/1/3 197/1/3
f 201/1/3 200/1/3 199/1/3
f 202/1/3 200/1/3 201/1/3
f 206/1/3 204/1/3 203/1/3
f 207/1/3 204/1/3 206/1/3
f 209/2/3 206/2/3 205/2/3
f 210/2/3 206/2/3 209/2/3
f 211/2/3 208/2/3 207/2/3
f 212/2/3 208/2/3 211/2/3
f 215/3/3 214/3/3 213/3/3
f 216/3/3 214/3/3 215/3/3
f 219/3/3 218/3/3 217/3/3
f 220/3/3 218/3/3 219/3/3
f 223/5/3 222/5/3 221/5/3
f 224/5/3 222/5/3 223/5/3
f 227/5/3 226/5/3 225/5/3
f 228/5/3 226/5/3 227/5/3
f 231/5/3 230/5/3 229/5/3
f 232/5/3 230/5/3 231/5/3
f 235/5/3 234/5/3 233/5/3
f 236/5/3 234/5/3 235/5/3
f 239/3/3 238/3/3 237/3/3
f 240/3/3 238/3/3 239/3/3
f 243/5/3 242/5/3 241/5/3
f 244/5/3 242/5/3 243/5/3
f 249/5/3 246/5/3 245/5/3
f 250/5/3 246/5/3 249/5/3
f 251/3/3 248/3/3 247/3/3
f 252/3/3 248/3/3 251/3/3
f 255/5/3 254/5/3 253/5/3
f 256/5/3 254/5/3 255/5/3
f 259/5/3 258/5/3 257/5/3
f 260/5/3 258/5/3 259/5/3
f 261/3/4 262/3/4 263/3/4
f 263/3/4 262/3/4 264/3/4
f 265/3/4 266/3/4 267/3/4
f 267/3/4 266/3/4 268/3/4
f 269/5/4 270/5/4 271/5/4
f 271/5/4 270/5/4 272/5/4
f 273/5/4 274/5/4 275/5/4
f 275/5/4 274/5/4 276/5/4
f 277/5/4 278/5/4 279/5/4
f 279/5/4 278/5/4 280/5/4
f 281/3/4 282/3/4 283/3/4
f 283/3/4 282/3/4 284/3/4
f 285/5/4 286/5/4 287/5/4
f 287/5/4 286/5/4 288/5/4
f 289/5/4 290/5/4 293/5/4
f 293/5/4 290/5/4 294/5/4
f 291/3/4 292/3/4 295/3/4
f 295/3/4 292/3/4 296/3/4
f 297/5/4 298/5/4 299/5/4
f 299/5/4 298/5/4 300/5/4
f 301/2/4 302/2/4 305/2/4
f 305/2/4 302/2/4 306/2/4
f 303/2/4 304/2/4 307/2/4
f 307/2/4 304/2/4 308/2/4
f 306/1/4 307/1/4 309/1/4
f 309/1/4 307/1/4 310/1/4
f 311/1/4 312/1/4 313/1/4
f 313/1/4 312/1/4 314/1/4
f 315/5/4 316/5/4 319/5/4
f 319/5/4 316/5/4 320/5/4
f 317/1/4 318/1/4 322/1/4
f 322/1/4 318/1/4 323/1/4
f 321/2/4 322/2/4 325/2/4
f 325/2/4 322/2/4 326/2/4
f 323/2/4 324/2/4 327/2/4
f 327/2/4 324/2/4 328/2/4
f 329/2/4 330/2/4 333/2/4
f 331/2/4 332/2/4 334/2/4
f 329/2/4 333/2/4 335/2/4
f 333/3/4 334/3/4 335/3/4
f 334/2/4 332/2/4 336/2/4
f 335/3/4 334/3/4 336/3/4
f 329/2/4 335/2/4 337/2/4
f 336/2/4 332/2/4 338/2/4
f 329/2/4 337/2/4 339/2/4
f 337/3/4 338/3/4 339/3/4
f 338/2/4 332/2/4 340/2/4
f 339/3/4 338/3/4 340/3/4
f 329/2/4 339/2/4 341/2/4
f 341/2/4 339/2/4 342/2/4
f 340/2/4 332/2/4 343/2/4
f 343/2/4 332/2/4 344/2/4
f 348/2/5 346/2/5 345/2/5
f 349/2/5 346/2/5 348/2/5
f 351/2/5 348/2/5 347/2/5
f 352/4/5 349/4/5 348/4/5
f 352/2/5 348/2/5 351/2/5
f 353/2/5 350/2/5 349/2/5
f 353/4/5 349/4/5 352/4/5
f 354/2/5 350/2/5 353/2/5
f 355/2/5 353/2/5 352/2/5
f 356/2/5 353/2/5 355/2/5
f 364/2/5 358/2/5 357/2/5
f 365/2/5 358/2/5 364/2/5
f 366/2/5 360/2/5 359/2/5
f 367/2/5 360/2/5 366/2/5
f 368/2/5 362/2/5 361/2/5
f 369/2/5 362/2/5 368/2/5
f 371/2/5 370/2/5 369/2/5
f 372/2/5 370/2/5 371/2/5
f 373/2/5 364/2/5 363/2/5
f 374/2/5 364/2/5 373/2/5
f 379/2/5 378/2/5 377/2/5
f 380/2/5 378/2/5 379/2/5
f 381/2/5 376/2/5 375/2/5
f 382/2/5 376/2/5 381/2/5
f 387/2/5 384/2/5 383/2/5
f 388/2/5 384/2/5 387/2/5
f 393/2/5 386/2/5 385/2/5
f 394/2/5 386/2/5 393/2/5
f 395/2/5 389/2/5 388/2/5
f 396/2/5 389/2/5 395/2/5
f 397/2/5 391/2/5 390/2/5
f 398/2/5 391/2/5 397/2/5
f 399/2/5 393/2/5 392/2/5
f 400/2/5 393/2/5 399/2/5
f 401/2/6 402/2/6 408/2/6
f 408/2/6 402/2/6 409/2/6
f 403/2/6 404/2/6 410/2/6
f 410/2/6 404/2/6 411/2/6
f 405/2/6 406/2/6 412/2/6
f 412/2/6 406/2/6 413/2/6
f 413/2/6 414/2/6 415/2/6
f 415/2/6 414/2/6 416/2/6
f 407/2/6 408/2/6 417/2/6
f 417/2/6 408/2/6 418/2/6
f 421/2/6 422/2/6 423/2/6
f 423/2/6 422/2/6 424/2/6
f 419/2/6 420/2/6 425/2/6
f 425/2/6 420/2/6 426/2/6
f 427/2/6 428/2/6 431/2/6
f 431/2/6 428/2/6 432/2/6
f 429/2/6 430/2/6 437/2/6
f 437/2/6 430/2/6 438/2/6
f 432/2/6 433/2/6 439/2/6
f 439/2/6 433/2/6 440/2/6
f 434/2/6 435/2/6 441/2/6
f 441/2/6 435/2/6 442/2/6
f 436/2/6 437/2/6 443/2/6
f 443/2/6 437/2/6 444/2/6
f 445/2/6 446/2/6 448/2/6
f 448/2/6 446/2/6 449/2/6
f 448/4/6 449/4/6 451/4/6
f 451/4/6 449/4/6 452/4/6
f 448/4/6 451/4/6 453/4/6
f 452/4/6 449/4/6 454/4/6
f 454/4/6 449/4/6 455/4/6
f 448/4/6 453/4/6 456/4/6
f 453/4/6 454/4/6 456/4/6
f 456/4/6 454/4/6 457/4/6
f 457/4/6 454/4/6 458/4/6
f 455/4/6 449/4/6 459/4/6
f 459/4/6 449/4/6 460/4/6
f 457/4/6 458/4/6 461/4/6
f 458/4/6 459/4/6 461/4/6
f 461/4/6 459/4/6 462/4/6
f 462/4/6 459/4/6 463/4/6
f 460/4/6 449/4/6 464/4/6
f 449/2/6 450/2/6 465/2/6
f 464/4/6 449/4/6 465/4/6
f 448/4/6 456/4/6 466/4/6
f 463/4/6 464/4/6 467/4/6
f 462/4/6 463/4/6 467/4/6
f 467/4/6 464/4/6 468/4/6
f 468/4/6 464/4/6 469/4/6
f 465/2/6 450/2/6 470/2/6
f 466/4/6 467/4/6 471/4/6
f 468/4/6 469/4/6 472/4/6
f 469/4/6 470/4/6 472/4/6
f 472/4/6 470/4/6 473/4/6
f 447/2/6 448/2/6 474/2/6
f 448/4/6 466/4/6 475/4/6
f 474/2/6 448/2/6 475/2/6
f 466/4/6 471/4/6 475/4/6
f 471/4/6 472/4/6 475/4/6
f 475/4/6 472/4/6 476/4/6
f 473/4/6 470/4/6 477/4/6
f 470/2/6 450/2/6 478/2/6
f 477/4/6 470/4/6 478/4/6
f 478/2/6 450/2/6 479/2/6
f 475/2/6 476/2/6 480/2/6
f 476/2/6 477/2/6 480/2/6
f 477/2/6 478/2/6 480/2/6
f 480/2/6 478/2/6 481/2/6
f 482/5/6 483/5/6 484/5/6
f 484/5/6 483/5/6 485/5/6
f 485/5/6 486/5/6 489/5/6
f 489/5/6 486/5/6 490/5/6
f 487/5/6 488/5/6 492/5/6
f 490/5/6 491/5/6 494/5/6
f 494/5/6 491/5/6 495/5/6
f 492/5/6 493/5/6 497/5/6
f 487/5/6 492/5/6 497/5/6
f 497/5/6 493/5/6 498/5/6
f 495/5/6 496/5/6 500/5/6
f 500/5/6 496/5/6 501/5/6
f 498/5/6 499/5/6 502/5/6
f 502/5/6 499/5/6 503/5/6
f 503/5/6 504/5/6 505/5/6
f 505/5/6 504/5/6 506/5/6
