# MagicaVoxel @ Ephtracy

# group
o 

# material
mtllib Pianino.mtl
usemtl palette

# normals
vn -1 0 0
vn 1 0 0
vn 0 0 1
vn 0 0 -1
vn 0 -1 0
vn 0 1 0

# texcoords
vt 0.0175781 0.5
vt 0.123047 0.5
vt 0.201172 0.5
vt 0.400391 0.5
vt 0.443359 0.5
vt 0.681641 0.5
vt 0.705078 0.5
vt 0.845703 0.5
vt 0.962891 0.5

# verts
v -1 0 -0.2
v -1 0 -0.3
v -1 0 -0.8
v -1 0 -0.9
v -1 0.1 -0.2
v -1 0.1 -0.3
v -1 0.1 -0.8
v -1 0.1 -0.9
v -1 0.2 -0.2
v -1 0.2 -0.9
v -0.8 0 1
v -0.8 0 0.9
v -0.8 0 0.4
v -0.8 0 0.3
v -0.8 0.1 1
v -0.8 0.1 0.9
v -0.8 0.1 0.4
v -0.8 0.1 0.3
v 0.1 0 1.1
v 0.1 0 1
v 0.1 0 0.9
v 0.1 0 0.8
v 0.1 0 0.5
v 0.1 0 0.4
v 0.1 0 0.3
v 0.1 0 0.2
v 0.1 0.1 1
v 0.1 0.1 0.9
v 0.1 0.1 0.4
v 0.1 0.1 0.3
v 0.1 0.2 1.1
v 0.1 0.2 0.8
v 0.1 0.2 0.5
v 0.1 0.2 0.2
v 0.4 0 -0.3
v 0.4 0 -0.8
v 0.4 0.1 -0.3
v 0.4 0.1 -0.8
v 0.4 0 1.1
v 0.4 0 0.8
v 0.4 0 0.5
v 0.4 0 0.2
v 0.4 0.2 1.1
v 0.4 0.2 0.8
v 0.4 0.2 0.5
v 0.4 0.2 0.2
v 0.5 0 -0.3
v 0.5 0 -0.8
v 0.5 0.1 -0.3
v 0.5 0.1 -0.8
v 1.1 0 -0.2
v 1.1 0 -0.3
v 1.1 0 -0.8
v 1.1 0 -0.9
v 1.1 0.1 -0.2
v 1.1 0.1 -0.3
v 1.1 0.1 -0.8
v 1.1 0.1 -0.9
v 1.1 0.2 -0.2
v 1.1 0.2 -0.9
v 0.1 0 1.1
v 0.1 0.2 1.1
v 0.4 0 1.1
v 0.4 0.2 1.1
v -0.8 0 1
v -0.8 0.1 1
v 0.1 0 1
v 0.1 0.1 1
v 0.1 0 0.5
v 0.1 0.2 0.5
v 0.4 0 0.5
v 0.4 0.2 0.5
v -0.8 0 0.4
v -0.8 0.1 0.4
v 0.1 0 0.4
v 0.1 0.1 0.4
v -1 0 -0.2
v -1 0.1 -0.2
v -1 0.2 -0.2
v -0.9 0.1 -0.2
v -0.9 0.2 -0.2
v -0.8 0.1 -0.2
v -0.8 0.2 -0.2
v -0.7 0.1 -0.2
v -0.7 0.2 -0.2
v -0.6 0.1 -0.2
v -0.6 0.2 -0.2
v -0.5 0.1 -0.2
v -0.5 0.2 -0.2
v -0.4 0.1 -0.2
v -0.4 0.2 -0.2
v -0.3 0.1 -0.2
v -0.3 0.2 -0.2
v -0.2 0.1 -0.2
v -0.2 0.2 -0.2
v -0.0999999 0.1 -0.2
v -0.0999999 0.2 -0.2
v 1.19209e-07 0.1 -0.2
v 1.19209e-07 0.2 -0.2
v 0.1 0.1 -0.2
v 0.1 0.2 -0.2
v 0.2 0.1 -0.2
v 0.2 0.2 -0.2
v 0.3 0.1 -0.2
v 0.3 0.2 -0.2
v 0.4 0.1 -0.2
v 0.4 0.2 -0.2
v 0.5 0.1 -0.2
v 0.5 0.2 -0.2
v 0.6 0.1 -0.2
v 0.6 0.2 -0.2
v 0.7 0.1 -0.2
v 0.7 0.2 -0.2
v 0.8 0.1 -0.2
v 0.8 0.2 -0.2
v 0.9 0.1 -0.2
v 0.9 0.2 -0.2
v 1 0.1 -0.2
v 1 0.2 -0.2
v 1.1 0 -0.2
v 1.1 0.1 -0.2
v 1.1 0.2 -0.2
v -1 0 -0.8
v -1 0.1 -0.8
v -0.7 0.1 -0.8
v -0.4 0.1 -0.8
v -0.0999999 0.1 -0.8
v 0.2 0.1 -0.8
v 0.4 0 -0.8
v 0.4 0.1 -0.8
v 0.5 0 -0.8
v 0.5 0.1 -0.8
v 0.8 0.1 -0.8
v 1.1 0 -0.8
v 1.1 0.1 -0.8
v -0.8 0 0.9
v -0.8 0.1 0.9
v 0.1 0 0.9
v 0.1 0.1 0.9
v 0.1 0 0.8
v 0.1 0.2 0.8
v 0.4 0 0.8
v 0.4 0.2 0.8
v -0.8 0 0.3
v -0.8 0.1 0.3
v 0.1 0 0.3
v 0.1 0.1 0.3
v 0.1 0 0.2
v 0.1 0.2 0.2
v 0.4 0 0.2
v 0.4 0.2 0.2
v -1 0 -0.3
v -1 0.1 -0.3
v -0.7 0.1 -0.3
v -0.4 0.1 -0.3
v -0.0999999 0.1 -0.3
v 0.2 0.1 -0.3
v 0.4 0 -0.3
v 0.4 0.1 -0.3
v 0.5 0 -0.3
v 0.5 0.1 -0.3
v 0.8 0.1 -0.3
v 1.1 0 -0.3
v 1.1 0.1 -0.3
v -1 0 -0.9
v -1 0.1 -0.9
v -1 0.2 -0.9
v -0.9 0.1 -0.9
v -0.9 0.2 -0.9
v -0.8 0.1 -0.9
v -0.8 0.2 -0.9
v -0.7 0.1 -0.9
v -0.7 0.2 -0.9
v -0.6 0.1 -0.9
v -0.6 0.2 -0.9
v -0.5 0.1 -0.9
v -0.5 0.2 -0.9
v -0.4 0.1 -0.9
v -0.4 0.2 -0.9
v -0.3 0.1 -0.9
v -0.3 0.2 -0.9
v -0.2 0.1 -0.9
v -0.2 0.2 -0.9
v -0.0999999 0.1 -0.9
v -0.0999999 0.2 -0.9
v 1.19209e-07 0.1 -0.9
v 1.19209e-07 0.2 -0.9
v 0.1 0.1 -0.9
v 0.1 0.2 -0.9
v 0.2 0.1 -0.9
v 0.2 0.2 -0.9
v 0.3 0.1 -0.9
v 0.3 0.2 -0.9
v 0.4 0.1 -0.9
v 0.4 0.2 -0.9
v 0.5 0.1 -0.9
v 0.5 0.2 -0.9
v 0.6 0.1 -0.9
v 0.6 0.2 -0.9
v 0.7 0.1 -0.9
v 0.7 0.2 -0.9
v 0.8 0.1 -0.9
v 0.8 0.2 -0.9
v 0.9 0.1 -0.9
v 0.9 0.2 -0.9
v 1 0.1 -0.9
v 1 0.2 -0.9
v 1.1 0 -0.9
v 1.1 0.1 -0.9
v 1.1 0.2 -0.9
v 0.1 0 1.1
v 0.4 0 1.1
v -0.8 0 1
v 0.1 0 1
v -0.8 0 0.9
v 0.1 0 0.9
v 0.1 0 0.8
v 0.4 0 0.8
v 0.1 0 0.5
v 0.4 0 0.5
v -0.8 0 0.4
v 0.1 0 0.4
v -0.8 0 0.3
v 0.1 0 0.3
v 0.1 0 0.2
v 0.4 0 0.2
v -1 0 -0.2
v 1.1 0 -0.2
v -1 0 -0.3
v 0.4 0 -0.3
v 0.5 0 -0.3
v 1.1 0 -0.3
v -1 0 -0.8
v 0.4 0 -0.8
v 0.5 0 -0.8
v 1.1 0 -0.8
v -1 0 -0.9
v 1.1 0 -0.9
v -1 0.1 -0.3
v -0.7 0.1 -0.3
v -0.4 0.1 -0.3
v -0.0999999 0.1 -0.3
v 0.2 0.1 -0.3
v 0.4 0.1 -0.3
v 0.5 0.1 -0.3
v 0.8 0.1 -0.3
v 1.1 0.1 -0.3
v -1 0.1 -0.8
v -0.7 0.1 -0.8
v -0.4 0.1 -0.8
v -0.0999999 0.1 -0.8
v 0.2 0.1 -0.8
v 0.4 0.1 -0.8
v 0.5 0.1 -0.8
v 0.8 0.1 -0.8
v 1.1 0.1 -0.8
v -0.8 0.1 1
v 0.1 0.1 1
v -0.8 0.1 0.9
v 0.1 0.1 0.9
v -0.8 0.1 0.4
v 0.1 0.1 0.4
v -0.8 0.1 0.3
v 0.1 0.1 0.3
v 0.1 0.2 1.1
v 0.4 0.2 1.1
v 0.1 0.2 0.8
v 0.4 0.2 0.8
v 0.1 0.2 0.5
v 0.4 0.2 0.5
v 0.1 0.2 0.2
v 0.4 0.2 0.2
v -1 0.2 -0.2
v -0.9 0.2 -0.2
v -0.8 0.2 -0.2
v -0.7 0.2 -0.2
v -0.6 0.2 -0.2
v -0.5 0.2 -0.2
v -0.4 0.2 -0.2
v -0.3 0.2 -0.2
v -0.2 0.2 -0.2
v -0.0999999 0.2 -0.2
v 1.19209e-07 0.2 -0.2
v 0.1 0.2 -0.2
v 0.2 0.2 -0.2
v 0.3 0.2 -0.2
v 0.4 0.2 -0.2
v 0.5 0.2 -0.2
v 0.6 0.2 -0.2
v 0.7 0.2 -0.2
v 0.8 0.2 -0.2
v 0.9 0.2 -0.2
v 1 0.2 -0.2
v 1.1 0.2 -0.2
v -0.9 0.2 -0.3
v -0.8 0.2 -0.3
v -0.6 0.2 -0.3
v -0.5 0.2 -0.3
v -0.3 0.2 -0.3
v -0.2 0.2 -0.3
v 1.19209e-07 0.2 -0.3
v 0.1 0.2 -0.3
v 0.3 0.2 -0.3
v 0.4 0.2 -0.3
v 0.6 0.2 -0.3
v 0.7 0.2 -0.3
v 0.9 0.2 -0.3
v 1 0.2 -0.3
v -0.9 0.2 -0.8
v -0.8 0.2 -0.8
v -0.6 0.2 -0.8
v -0.5 0.2 -0.8
v -0.3 0.2 -0.8
v -0.2 0.2 -0.8
v 1.19209e-07 0.2 -0.8
v 0.1 0.2 -0.8
v 0.3 0.2 -0.8
v 0.4 0.2 -0.8
v 0.6 0.2 -0.8
v 0.7 0.2 -0.8
v 0.9 0.2 -0.8
v 1 0.2 -0.8
v -1 0.2 -0.9
v -0.9 0.2 -0.9
v -0.8 0.2 -0.9
v -0.7 0.2 -0.9
v -0.6 0.2 -0.9
v -0.5 0.2 -0.9
v -0.4 0.2 -0.9
v -0.3 0.2 -0.9
v -0.2 0.2 -0.9
v -0.0999999 0.2 -0.9
v 1.19209e-07 0.2 -0.9
v 0.1 0.2 -0.9
v 0.2 0.2 -0.9
v 0.3 0.2 -0.9
v 0.4 0.2 -0.9
v 0.5 0.2 -0.9
v 0.6 0.2 -0.9
v 0.7 0.2 -0.9
v 0.8 0.2 -0.9
v 0.9 0.2 -0.9
v 1 0.2 -0.9
v 1.1 0.2 -0.9

# faces
f 5/3/1 2/3/1 1/3/1
f 6/3/1 2/3/1 5/3/1
f 7/3/1 4/3/1 3/3/1
f 8/3/1 4/3/1 7/3/1
f 9/4/1 6/4/1 5/4/1
f 9/4/1 7/4/1 6/4/1
f 9/4/1 8/4/1 7/4/1
f 10/4/1 8/4/1 9/4/1
f 15/3/1 12/3/1 11/3/1
f 16/3/1 12/3/1 15/3/1
f 17/3/1 14/3/1 13/3/1
f 18/3/1 14/3/1 17/3/1
f 27/9/1 20/9/1 19/9/1
f 28/9/1 22/9/1 21/9/1
f 29/9/1 24/9/1 23/9/1
f 30/9/1 26/9/1 25/9/1
f 31/9/1 27/9/1 19/9/1
f 31/9/1 28/9/1 27/9/1
f 32/9/1 22/9/1 28/9/1
f 32/9/1 28/9/1 31/9/1
f 33/9/1 29/9/1 23/9/1
f 33/9/1 30/9/1 29/9/1
f 34/9/1 26/9/1 30/9/1
f 34/9/1 30/9/1 33/9/1
f 37/5/1 36/5/1 35/5/1
f 38/5/1 36/5/1 37/5/1
f 39/9/2 40/9/2 43/9/2
f 43/9/2 40/9/2 44/9/2
f 41/9/2 42/9/2 45/9/2
f 45/9/2 42/9/2 46/9/2
f 47/5/2 48/5/2 49/5/2
f 49/5/2 48/5/2 50/5/2
f 51/3/2 52/3/2 55/3/2
f 55/3/2 52/3/2 56/3/2
f 53/3/2 54/3/2 57/3/2
f 57/3/2 54/3/2 58/3/2
f 55/8/2 56/8/2 59/8/2
f 56/8/2 57/8/2 59/8/2
f 57/8/2 58/8/2 59/8/2
f 59/8/2 58/8/2 60/8/2
f 63/9/3 62/9/3 61/9/3
f 64/9/3 62/9/3 63/9/3
f 67/3/3 66/3/3 65/3/3
f 68/3/3 66/3/3 67/3/3
f 71/9/3 70/9/3 69/9/3
f 72/9/3 70/9/3 71/9/3
f 75/3/3 74/3/3 73/3/3
f 76/3/3 74/3/3 75/3/3
f 80/3/3 78/3/3 77/3/3
f 80/4/3 79/4/3 78/4/3
f 81/4/3 79/4/3 80/4/3
f 82/3/3 80/3/3 77/3/3
f 82/3/3 81/3/3 80/3/3
f 83/3/3 81/3/3 82/3/3
f 84/3/3 82/3/3 77/3/3
f 84/4/3 83/4/3 82/4/3
f 85/4/3 83/4/3 84/4/3
f 86/3/3 84/3/3 77/3/3
f 86/2/3 85/2/3 84/2/3
f 87/2/3 85/2/3 86/2/3
f 88/3/3 86/3/3 77/3/3
f 88/3/3 87/3/3 86/3/3
f 89/3/3 87/3/3 88/3/3
f 90/3/3 88/3/3 77/3/3
f 90/2/3 89/2/3 88/2/3
f 91/2/3 89/2/3 90/2/3
f 92/3/3 90/3/3 77/3/3
f 92/6/3 91/6/3 90/6/3
f 93/6/3 91/6/3 92/6/3
f 94/3/3 92/3/3 77/3/3
f 94/3/3 93/3/3 92/3/3
f 95/3/3 93/3/3 94/3/3
f 96/3/3 94/3/3 77/3/3
f 96/6/3 95/6/3 94/6/3
f 97/6/3 95/6/3 96/6/3
f 98/3/3 96/3/3 77/3/3
f 98/7/3 97/7/3 96/7/3
f 99/7/3 97/7/3 98/7/3
f 100/3/3 98/3/3 77/3/3
f 100/3/3 99/3/3 98/3/3
f 101/3/3 99/3/3 100/3/3
f 102/3/3 100/3/3 77/3/3
f 102/7/3 101/7/3 100/7/3
f 103/7/3 101/7/3 102/7/3
f 104/3/3 102/3/3 77/3/3
f 104/5/3 103/5/3 102/5/3
f 105/5/3 103/5/3 104/5/3
f 106/3/3 104/3/3 77/3/3
f 106/3/3 105/3/3 104/3/3
f 107/3/3 105/3/3 106/3/3
f 108/3/3 106/3/3 77/3/3
f 108/5/3 107/5/3 106/5/3
f 109/5/3 107/5/3 108/5/3
f 110/3/3 108/3/3 77/3/3
f 110/1/3 109/1/3 108/1/3
f 111/1/3 109/1/3 110/1/3
f 112/3/3 110/3/3 77/3/3
f 112/3/3 111/3/3 110/3/3
f 113/3/3 111/3/3 112/3/3
f 114/3/3 112/3/3 77/3/3
f 114/1/3 113/1/3 112/1/3
f 115/1/3 113/1/3 114/1/3
f 116/3/3 114/3/3 77/3/3
f 116/8/3 115/8/3 114/8/3
f 117/8/3 115/8/3 116/8/3
f 118/3/3 116/3/3 77/3/3
f 118/3/3 117/3/3 116/3/3
f 119/3/3 117/3/3 118/3/3
f 120/3/3 118/3/3 77/3/3
f 121/8/3 119/8/3 118/8/3
f 121/3/3 118/3/3 120/3/3
f 122/8/3 119/8/3 121/8/3
f 125/3/3 124/3/3 123/3/3
f 126/3/3 125/3/3 123/3/3
f 127/3/3 126/3/3 123/3/3
f 128/3/3 127/3/3 123/3/3
f 129/3/3 128/3/3 123/3/3
f 130/3/3 128/3/3 129/3/3
f 133/3/3 132/3/3 131/3/3
f 134/3/3 133/3/3 131/3/3
f 135/3/3 133/3/3 134/3/3
f 136/3/4 137/3/4 138/3/4
f 138/3/4 137/3/4 139/3/4
f 140/9/4 141/9/4 142/9/4
f 142/9/4 141/9/4 143/9/4
f 144/3/4 145/3/4 146/3/4
f 146/3/4 145/3/4 147/3/4
f 148/9/4 149/9/4 150/9/4
f 150/9/4 149/9/4 151/9/4
f 152/3/4 153/3/4 154/3/4
f 152/3/4 154/3/4 155/3/4
f 152/3/4 155/3/4 156/3/4
f 152/3/4 156/3/4 157/3/4
f 152/3/4 157/3/4 158/3/4
f 158/3/4 157/3/4 159/3/4
f 160/3/4 161/3/4 162/3/4
f 160/3/4 162/3/4 163/3/4
f 163/3/4 162/3/4 164/3/4
f 165/3/4 166/3/4 168/3/4
f 166/4/4 167/4/4 168/4/4
f 168/4/4 167/4/4 169/4/4
f 165/3/4 168/3/4 170/3/4
f 168/3/4 169/3/4 170/3/4
f 170/3/4 169/3/4 171/3/4
f 165/3/4 170/3/4 172/3/4
f 170/4/4 171/4/4 172/4/4
f 172/4/4 171/4/4 173/4/4
f 165/3/4 172/3/4 174/3/4
f 172/2/4 173/2/4 174/2/4
f 174/2/4 173/2/4 175/2/4
f 165/3/4 174/3/4 176/3/4
f 174/3/4 175/3/4 176/3/4
f 176/3/4 175/3/4 177/3/4
f 165/3/4 176/3/4 178/3/4
f 176/2/4 177/2/4 178/2/4
f 178/2/4 177/2/4 179/2/4
f 165/3/4 178/3/4 180/3/4
f 178/6/4 179/6/4 180/6/4
f 180/6/4 179/6/4 181/6/4
f 165/3/4 180/3/4 182/3/4
f 180/3/4 181/3/4 182/3/4
f 182/3/4 181/3/4 183/3/4
f 165/3/4 182/3/4 184/3/4
f 182/6/4 183/6/4 184/6/4
f 184/6/4 183/6/4 185/6/4
f 165/3/4 184/3/4 186/3/4
f 184/7/4 185/7/4 186/7/4
f 186/7/4 185/7/4 187/7/4
f 165/3/4 186/3/4 188/3/4
f 186/3/4 187/3/4 188/3/4
f 188/3/4 187/3/4 189/3/4
f 165/3/4 188/3/4 190/3/4
f 188/7/4 189/7/4 190/7/4
f 190/7/4 189/7/4 191/7/4
f 165/3/4 190/3/4 192/3/4
f 190/5/4 191/5/4 192/5/4
f 192/5/4 191/5/4 193/5/4
f 165/3/4 192/3/4 194/3/4
f 192/3/4 193/3/4 194/3/4
f 194/3/4 193/3/4 195/3/4
f 165/3/4 194/3/4 196/3/4
f 194/5/4 195/5/4 196/5/4
f 196/5/4 195/5/4 197/5/4
f 165/3/4 196/3/4 198/3/4
f 196/1/4 197/1/4 198/1/4
f 198/1/4 197/1/4 199/1/4
f 165/3/4 198/3/4 200/3/4
f 198/3/4 199/3/4 200/3/4
f 200/3/4 199/3/4 201/3/4
f 165/3/4 200/3/4 202/3/4
f 200/1/4 201/1/4 202/1/4
f 202/1/4 201/1/4 203/1/4
f 165/3/4 202/3/4 204/3/4
f 202/8/4 203/8/4 204/8/4
f 204/8/4 203/8/4 205/8/4
f 165/3/4 204/3/4 206/3/4
f 204/3/4 205/3/4 206/3/4
f 206/3/4 205/3/4 207/3/4
f 165/3/4 206/3/4 208/3/4
f 206/8/4 207/8/4 209/8/4
f 208/3/4 206/3/4 209/3/4
f 209/8/4 207/8/4 210/8/4
f 214/9/5 212/9/5 211/9/5
f 215/3/5 214/3/5 213/3/5
f 216/9/5 212/9/5 214/9/5
f 216/3/5 214/3/5 215/3/5
f 217/9/5 212/9/5 216/9/5
f 218/9/5 212/9/5 217/9/5
f 222/9/5 220/9/5 219/9/5
f 223/3/5 222/3/5 221/3/5
f 224/9/5 220/9/5 222/9/5
f 224/3/5 222/3/5 223/3/5
f 225/9/5 220/9/5 224/9/5
f 226/9/5 220/9/5 225/9/5
f 229/3/5 228/3/5 227/3/5
f 230/3/5 228/3/5 229/3/5
f 231/3/5 228/3/5 230/3/5
f 232/3/5 228/3/5 231/3/5
f 234/5/5 231/5/5 230/5/5
f 235/5/5 231/5/5 234/5/5
f 237/3/5 234/3/5 233/3/5
f 237/3/5 236/3/5 235/3/5
f 237/3/5 235/3/5 234/3/5
f 238/3/5 236/3/5 237/3/5
f 248/4/5 240/4/5 239/4/5
f 249/2/5 241/2/5 240/2/5
f 249/4/5 240/4/5 248/4/5
f 250/6/5 242/6/5 241/6/5
f 250/2/5 241/2/5 249/2/5
f 251/7/5 243/7/5 242/7/5
f 251/6/5 242/6/5 250/6/5
f 252/5/5 244/5/5 243/5/5
f 252/7/5 243/7/5 251/7/5
f 253/5/5 244/5/5 252/5/5
f 254/1/5 246/1/5 245/1/5
f 255/8/5 247/8/5 246/8/5
f 255/1/5 246/1/5 254/1/5
f 256/8/5 247/8/5 255/8/5
f 257/3/6 258/3/6 259/3/6
f 259/3/6 258/3/6 260/3/6
f 261/3/6 262/3/6 263/3/6
f 263/3/6 262/3/6 264/3/6
f 265/9/6 266/9/6 267/9/6
f 267/9/6 266/9/6 268/9/6
f 269/9/6 270/9/6 271/9/6
f 271/9/6 270/9/6 272/9/6
f 273/4/6 274/4/6 295/4/6
f 274/3/6 275/3/6 295/3/6
f 275/4/6 276/4/6 296/4/6
f 295/3/6 275/3/6 296/3/6
f 276/2/6 277/2/6 297/2/6
f 277/3/6 278/3/6 297/3/6
f 278/2/6 279/2/6 298/2/6
f 297/3/6 278/3/6 298/3/6
f 279/6/6 280/6/6 299/6/6
f 280/3/6 281/3/6 299/3/6
f 281/6/6 282/6/6 300/6/6
f 299/3/6 281/3/6 300/3/6
f 282/7/6 283/7/6 301/7/6
f 283/3/6 284/3/6 301/3/6
f 284/7/6 285/7/6 302/7/6
f 301/3/6 284/3/6 302/3/6
f 286/3/6 287/3/6 303/3/6
f 285/5/6 286/5/6 303/5/6
f 287/5/6 288/5/6 304/5/6
f 303/3/6 287/3/6 304/3/6
f 288/1/6 289/1/6 305/1/6
f 289/3/6 290/3/6 305/3/6
f 290/1/6 291/1/6 306/1/6
f 305/3/6 290/3/6 306/3/6
f 292/3/6 293/3/6 307/3/6
f 291/8/6 292/8/6 307/8/6
f 293/8/6 294/8/6 308/8/6
f 307/3/6 293/3/6 308/3/6
f 273/4/6 295/4/6 309/4/6
f 295/4/6 296/4/6 309/4/6
f 296/4/6 276/4/6 310/4/6
f 309/4/6 296/4/6 310/4/6
f 276/2/6 297/2/6 311/2/6
f 297/2/6 298/2/6 311/2/6
f 298/2/6 279/2/6 312/2/6
f 311/2/6 298/2/6 312/2/6
f 279/6/6 299/6/6 313/6/6
f 299/6/6 300/6/6 313/6/6
f 300/6/6 282/6/6 314/6/6
f 313/6/6 300/6/6 314/6/6
f 301/7/6 302/7/6 315/7/6
f 282/7/6 301/7/6 315/7/6
f 302/7/6 285/7/6 316/7/6
f 315/7/6 302/7/6 316/7/6
f 285/5/6 303/5/6 317/5/6
f 303/5/6 304/5/6 317/5/6
f 304/5/6 288/5/6 318/5/6
f 317/5/6 304/5/6 318/5/6
f 288/1/6 305/1/6 319/1/6
f 305/1/6 306/1/6 319/1/6
f 306/1/6 291/1/6 320/1/6
f 319/1/6 306/1/6 320/1/6
f 291/8/6 307/8/6 321/8/6
f 307/8/6 308/8/6 321/8/6
f 308/8/6 294/8/6 322/8/6
f 321/8/6 308/8/6 322/8/6
f 273/4/6 309/4/6 323/4/6
f 309/3/6 310/3/6 324/3/6
f 323/4/6 309/4/6 324/4/6
f 310/4/6 276/4/6 325/4/6
f 324/3/6 310/3/6 325/3/6
f 276/2/6 311/2/6 326/2/6
f 325/4/6 276/4/6 326/4/6
f 311/3/6 312/3/6 327/3/6
f 326/2/6 311/2/6 327/2/6
f 312/2/6 279/2/6 328/2/6
f 327/3/6 312/3/6 328/3/6
f 279/6/6 313/6/6 329/6/6
f 328/2/6 279/2/6 329/2/6
f 313/3/6 314/3/6 330/3/6
f 329/6/6 313/6/6 330/6/6
f 314/6/6 282/6/6 331/6/6
f 330/3/6 314/3/6 331/3/6
f 282/7/6 315/7/6 332/7/6
f 331/6/6 282/6/6 332/6/6
f 315/3/6 316/3/6 333/3/6
f 332/7/6 315/7/6 333/7/6
f 316/7/6 285/7/6 334/7/6
f 333/3/6 316/3/6 334/3/6
f 285/5/6 317/5/6 335/5/6
f 334/7/6 285/7/6 335/7/6
f 317/3/6 318/3/6 336/3/6
f 335/5/6 317/5/6 336/5/6
f 318/5/6 288/5/6 337/5/6
f 336/3/6 318/3/6 337/3/6
f 288/1/6 319/1/6 338/1/6
f 337/5/6 288/5/6 338/5/6
f 319/3/6 320/3/6 339/3/6
f 338/1/6 319/1/6 339/1/6
f 320/1/6 291/1/6 340/1/6
f 339/3/6 320/3/6 340/3/6
f 291/8/6 321/8/6 341/8/6
f 340/1/6 291/1/6 341/1/6
f 321/3/6 322/3/6 342/3/6
f 341/8/6 321/8/6 342/8/6
f 322/8/6 294/8/6 343/8/6
f 342/3/6 322/3/6 343/3/6
f 343/8/6 294/8/6 344/8/6
