# MagicaVoxel @ Ephtracy

# group
o 

# material
mtllib Rainbow puzzle.mtl
usemtl palette

# normals
vn -1 0 0
vn 1 0 0
vn 0 0 1
vn 0 0 -1
vn 0 -1 0
vn 0 1 0

# texcoords
vt 0.0214844 0.5
vt 0.119141 0.5
vt 0.353516 0.5
vt 0.404297 0.5
vt 0.583984 0.5
vt 0.681641 0.5
vt 0.705078 0.5
vt 0.841797 0.5
vt 0.958984 0.5

# verts
v -0.7 0 0.4
v -0.7 0 -0.7
v -0.7 0.2 0.4
v -0.7 0.2 -0.7
v -0.6 0.2 0.3
v -0.6 0.2 -0.6
v -0.6 0.4 0.3
v -0.6 0.4 -0.6
v -0.6 0.6 0.3
v -0.6 0.6 -0.6
v -0.5 0.6 0.2
v -0.5 0.6 -0.5
v -0.5 0.8 0.2
v -0.5 0.8 -0.5
v -0.5 1 0.2
v -0.5 1 -0.5
v -0.4 1 0.2
v -0.4 1 -0.5
v -0.4 1.2 0.2
v -0.4 1.2 -0.5
v -0.4 1.4 0.2
v -0.4 1.4 -0.5
v -0.3 1.4 0.1
v -0.3 1.4 -0.4
v -0.3 1.7 0.1
v -0.3 1.7 -0.4
v 0.1 1.4 0.1
v 0.1 1.4 -0.4
v 0.1 1.7 0.1
v 0.1 1.7 -0.4
v 0.2 1 0.2
v 0.2 1 -0.5
v 0.2 1.2 0.2
v 0.2 1.2 -0.5
v 0.2 1.4 0.2
v 0.2 1.4 -0.5
v 0.3 0.6 0.2
v 0.3 0.6 -0.5
v 0.3 0.8 0.2
v 0.3 0.8 -0.5
v 0.3 1 0.2
v 0.3 1 -0.5
v 0.4 0.2 0.3
v 0.4 0.2 -0.6
v 0.4 0.4 0.3
v 0.4 0.4 -0.6
v 0.4 0.6 0.3
v 0.4 0.6 -0.6
v 0.5 0 0.4
v 0.5 0 -0.7
v 0.5 0.2 0.4
v 0.5 0.2 -0.7
v -0.7 0 0.4
v -0.7 0.2 0.4
v 0.5 0 0.4
v 0.5 0.2 0.4
v -0.6 0.2 0.3
v -0.6 0.4 0.3
v -0.6 0.6 0.3
v 0.4 0.2 0.3
v 0.4 0.4 0.3
v 0.4 0.6 0.3
v -0.5 0.6 0.2
v -0.5 0.8 0.2
v -0.5 1 0.2
v -0.4 1 0.2
v -0.4 1.2 0.2
v -0.4 1.4 0.2
v 0.2 1 0.2
v 0.2 1.2 0.2
v 0.2 1.4 0.2
v 0.3 0.6 0.2
v 0.3 0.8 0.2
v 0.3 1 0.2
v -0.3 1.4 0.1
v -0.3 1.7 0.1
v 0.1 1.4 0.1
v 0.1 1.7 0.1
v -0.3 1.4 -0.4
v -0.3 1.7 -0.4
v 0.1 1.4 -0.4
v 0.1 1.7 -0.4
v -0.5 0.6 -0.5
v -0.5 0.8 -0.5
v -0.5 1 -0.5
v -0.4 1 -0.5
v -0.4 1.2 -0.5
v -0.4 1.4 -0.5
v 0.2 1 -0.5
v 0.2 1.2 -0.5
v 0.2 1.4 -0.5
v 0.3 0.6 -0.5
v 0.3 0.8 -0.5
v 0.3 1 -0.5
v -0.6 0.2 -0.6
v -0.6 0.4 -0.6
v -0.6 0.6 -0.6
v 0.4 0.2 -0.6
v 0.4 0.4 -0.6
v 0.4 0.6 -0.6
v -0.7 0 -0.7
v -0.7 0.2 -0.7
v 0.5 0 -0.7
v 0.5 0.2 -0.7
v -0.7 0 0.4
v 0.5 0 0.4
v -0.5 0 0.2
v 0.3 0 0.2
v -0.5 0 -0.5
v 0.3 0 -0.5
v -0.7 0 -0.7
v 0.5 0 -0.7
v -0.7 0.2 0.4
v 0.5 0.2 0.4
v -0.6 0.2 0.3
v 0.4 0.2 0.3
v -0.6 0.2 -0.6
v 0.4 0.2 -0.6
v -0.7 0.2 -0.7
v 0.5 0.2 -0.7
v -0.6 0.6 0.3
v 0.4 0.6 0.3
v -0.5 0.6 0.2
v 0.3 0.6 0.2
v -0.5 0.6 -0.5
v 0.3 0.6 -0.5
v -0.6 0.6 -0.6
v 0.4 0.6 -0.6
v -0.5 1 0.2
v -0.4 1 0.2
v 0.2 1 0.2
v 0.3 1 0.2
v -0.5 1 -0.5
v -0.4 1 -0.5
v 0.2 1 -0.5
v 0.3 1 -0.5
v -0.4 1.4 0.2
v 0.2 1.4 0.2
v -0.3 1.4 0.1
v 0.1 1.4 0.1
v -0.3 1.4 -0.4
v 0.1 1.4 -0.4
v -0.4 1.4 -0.5
v 0.2 1.4 -0.5
v -0.3 1.7 0.1
v 0.1 1.7 0.1
v -0.2 1.7 0
v 5.96046e-08 1.7 0
v -0.2 1.7 -0.3
v 5.96046e-08 1.7 -0.3
v -0.3 1.7 -0.4
v 0.1 1.7 -0.4

# faces
f 3/8/1 2/8/1 1/8/1
f 4/8/1 2/8/1 3/8/1
f 7/1/1 6/1/1 5/1/1
f 8/1/1 6/1/1 7/1/1
f 9/5/1 8/5/1 7/5/1
f 10/5/1 8/5/1 9/5/1
f 13/7/1 12/7/1 11/7/1
f 14/7/1 12/7/1 13/7/1
f 15/6/1 14/6/1 13/6/1
f 16/6/1 14/6/1 15/6/1
f 19/2/1 18/2/1 17/2/1
f 20/2/1 18/2/1 19/2/1
f 21/4/1 20/4/1 19/4/1
f 22/4/1 20/4/1 21/4/1
f 25/3/1 24/3/1 23/3/1
f 26/3/1 24/3/1 25/3/1
f 27/3/2 28/3/2 29/3/2
f 29/3/2 28/3/2 30/3/2
f 31/2/2 32/2/2 33/2/2
f 33/2/2 32/2/2 34/2/2
f 33/4/2 34/4/2 35/4/2
f 35/4/2 34/4/2 36/4/2
f 37/7/2 38/7/2 39/7/2
f 39/7/2 38/7/2 40/7/2
f 39/6/2 40/6/2 41/6/2
f 41/6/2 40/6/2 42/6/2
f 43/1/2 44/1/2 45/1/2
f 45/1/2 44/1/2 46/1/2
f 45/5/2 46/5/2 47/5/2
f 47/5/2 46/5/2 48/5/2
f 49/8/2 50/8/2 51/8/2
f 51/8/2 50/8/2 52/8/2
f 55/8/3 54/8/3 53/8/3
f 56/8/3 54/8/3 55/8/3
f 60/1/3 58/1/3 57/1/3
f 61/5/3 59/5/3 58/5/3
f 61/1/3 58/1/3 60/1/3
f 62/5/3 59/5/3 61/5/3
f 66/6/3 65/6/3 64/6/3
f 69/6/3 66/6/3 64/6/3
f 69/2/3 67/2/3 66/2/3
f 70/4/3 68/4/3 67/4/3
f 70/2/3 67/2/3 69/2/3
f 71/4/3 68/4/3 70/4/3
f 72/7/3 64/7/3 63/7/3
f 73/6/3 69/6/3 64/6/3
f 73/7/3 64/7/3 72/7/3
f 74/6/3 69/6/3 73/6/3
f 77/3/3 76/3/3 75/3/3
f 78/3/3 76/3/3 77/3/3
f 79/3/4 80/3/4 81/3/4
f 81/3/4 80/3/4 82/3/4
f 84/6/4 85/6/4 86/6/4
f 84/6/4 86/6/4 89/6/4
f 86/2/4 87/2/4 89/2/4
f 87/4/4 88/4/4 90/4/4
f 89/2/4 87/2/4 90/2/4
f 90/4/4 88/4/4 91/4/4
f 83/7/4 84/7/4 92/7/4
f 84/6/4 89/6/4 93/6/4
f 92/7/4 84/7/4 93/7/4
f 93/6/4 89/6/4 94/6/4
f 95/1/4 96/1/4 98/1/4
f 96/5/4 97/5/4 99/5/4
f 98/1/4 96/1/4 99/1/4
f 99/5/4 97/5/4 100/5/4
f 101/8/4 102/8/4 103/8/4
f 103/8/4 102/8/4 104/8/4
f 107/8/5 106/8/5 105/8/5
f 108/8/5 106/8/5 107/8/5
f 109/8/5 107/8/5 105/8/5
f 109/9/5 108/9/5 107/9/5
f 110/8/5 106/8/5 108/8/5
f 110/9/5 108/9/5 109/9/5
f 111/8/5 109/8/5 105/8/5
f 111/8/5 110/8/5 109/8/5
f 112/8/5 106/8/5 110/8/5
f 112/8/5 110/8/5 111/8/5
f 113/8/6 114/8/6 115/8/6
f 115/8/6 114/8/6 116/8/6
f 113/8/6 115/8/6 117/8/6
f 116/8/6 114/8/6 118/8/6
f 113/8/6 117/8/6 119/8/6
f 117/8/6 118/8/6 119/8/6
f 118/8/6 114/8/6 120/8/6
f 119/8/6 118/8/6 120/8/6
f 121/5/6 122/5/6 123/5/6
f 123/5/6 122/5/6 124/5/6
f 121/5/6 123/5/6 125/5/6
f 124/5/6 122/5/6 126/5/6
f 121/5/6 125/5/6 127/5/6
f 125/5/6 126/5/6 127/5/6
f 126/5/6 122/5/6 128/5/6
f 127/5/6 126/5/6 128/5/6
f 129/6/6 130/6/6 133/6/6
f 133/6/6 130/6/6 134/6/6
f 131/6/6 132/6/6 135/6/6
f 135/6/6 132/6/6 136/6/6
f 137/4/6 138/4/6 139/4/6
f 139/4/6 138/4/6 140/4/6
f 137/4/6 139/4/6 141/4/6
f 140/4/6 138/4/6 142/4/6
f 137/4/6 141/4/6 143/4/6
f 141/4/6 142/4/6 143/4/6
f 142/4/6 138/4/6 144/4/6
f 143/4/6 142/4/6 144/4/6
f 145/3/6 146/3/6 147/3/6
f 147/3/6 146/3/6 148/3/6
f 145/3/6 147/3/6 149/3/6
f 147/9/6 148/9/6 149/9/6
f 148/3/6 146/3/6 150/3/6
f 149/9/6 148/9/6 150/9/6
f 145/3/6 149/3/6 151/3/6
f 149/3/6 150/3/6 151/3/6
f 150/3/6 146/3/6 152/3/6
f 151/3/6 150/3/6 152/3/6
