# MagicaVoxel @ Ephtracy

# group
o 

# material
mtllib C.mtl
usemtl palette

# normals
vn -1 0 0
vn 1 0 0
vn 0 0 1
vn 0 0 -1
vn 0 -1 0
vn 0 1 0

# texcoords
vt 0.00195313 0.5
vt 0.0175781 0.5
vt 0.958984 0.5

# verts
v -2 0 2
v -2 0 -2
v -2 0.3 1.7
v -2 0.3 -1.7
v -2 1.1 0.9
v -2 1.1 -1
v -2 1.4 0.9
v -2 1.4 -0.4
v -2 2.8 0.8
v -2 2.8 -0.4
v -2 3.1 0.8
v -2 3.1 -1
v -2 3.7 1.7
v -2 3.7 -1.7
v -2 4 2
v -2 4 -2
v -1.9 0.3 1.7
v -1.9 0.3 -1.7
v -1.9 1.1 0.9
v -1.9 1.1 -1
v -1.9 1.4 0.9
v -1.9 1.4 -0.4
v -1.9 2.8 0.8
v -1.9 2.8 -0.4
v -1.9 3.1 0.8
v -1.9 3.1 -1
v -1.9 3.7 1.7
v -1.9 3.7 -1.7
v -1.1 0.9 2
v -1.1 0.9 1.9
v -1.1 3.3 2
v -1.1 3.3 1.9
v -1 1.1 -1.9
v -1 1.1 -2
v -1 1.5 -1.9
v -1 1.5 -2
v -1 2.9 -1.9
v -1 2.9 -2
v -1 3.3 -1.9
v -1 3.3 -2
v -1 3.9 1.1
v -1 3.9 -1
v -1 4 1.1
v -1 4 -1
v -0.8 0 1.1
v -0.8 0 0.8
v -0.8 0 -0.8
v -0.8 0 -1.1
v -0.8 0.1 1.1
v -0.8 0.1 0.8
v -0.8 0.1 -0.8
v -0.8 0.1 -1.1
v 0.2 1.5 -1.9
v 0.2 1.5 -2
v 0.2 2.9 -1.9
v 0.2 2.9 -2
v 0.3 0 0.8
v 0.3 0 -0.8
v 0.3 0.1 0.8
v 0.3 0.1 -0.8
v 0.8 3.9 1.1
v 0.8 3.9 -0.4
v 0.8 4 1.1
v 0.8 4 -0.4
v 1.7 0 1.7
v 1.7 0 -1.6
v 1.7 0.1 1.7
v 1.7 0.1 -1.6
v 1.7 0.3 2
v 1.7 0.3 1.9
v 1.7 0.3 -1.9
v 1.7 0.3 -2
v 1.7 3.7 2
v 1.7 3.7 1.9
v 1.7 3.7 -1.9
v 1.7 3.7 -2
v 1.7 3.9 1.7
v 1.7 3.9 -1.8
v 1.7 4 1.7
v 1.7 4 -1.8
v -1.7 0 1.7
v -1.7 0 -1.6
v -1.7 0.1 1.7
v -1.7 0.1 -1.6
v -1.7 0.3 2
v -1.7 0.3 1.9
v -1.7 0.3 -1.9
v -1.7 0.3 -2
v -1.7 3.7 2
v -1.7 3.7 1.9
v -1.7 3.7 -1.9
v -1.7 3.7 -2
v -1.7 3.9 1.7
v -1.7 3.9 -1.8
v -1.7 4 1.7
v -1.7 4 -1.8
v -0.7 3.9 1.1
v -0.7 3.9 -0.4
v -0.7 4 1.1
v -0.7 4 -0.4
v -0.3 1.2 2
v -0.3 1.2 1.9
v -0.3 3 2
v -0.3 3 1.9
v 0.9 1.1 -1.9
v 0.9 1.1 -2
v 0.9 3 2
v 0.9 3 1.9
v 0.9 3.3 2
v 0.9 3.3 1.9
v 0.9 3.3 -1.9
v 0.9 3.3 -2
v 1 0.9 2
v 1 0.9 1.9
v 1 1.2 2
v 1 1.2 1.9
v 1.1 0 1.1
v 1.1 0 -1.1
v 1.1 0.1 1.1
v 1.1 0.1 -1.1
v 1.2 3.9 1.1
v 1.2 3.9 -1
v 1.2 4 1.1
v 1.2 4 -1
v 1.9 0.3 1.7
v 1.9 0.3 -1.7
v 1.9 0.9 1.3
v 1.9 0.9 -0.7
v 1.9 1.2 0.6
v 1.9 1.2 -0.7
v 1.9 2.9 0.6
v 1.9 2.9 -0.6
v 1.9 3.2 1.3
v 1.9 3.2 -0.6
v 1.9 3.7 1.7
v 1.9 3.7 -1.7
v 2 0 2
v 2 0 -2
v 2 0.3 1.7
v 2 0.3 -1.7
v 2 0.9 1.3
v 2 0.9 -0.7
v 2 1.2 0.6
v 2 1.2 -0.7
v 2 2.9 0.6
v 2 2.9 -0.6
v 2 3.2 1.3
v 2 3.2 -0.6
v 2 3.7 1.7
v 2 3.7 -1.7
v 2 4 2
v 2 4 -2
v -2 0 2
v -2 4 2
v -1.7 0.3 2
v -1.7 3.7 2
v -1.1 0.9 2
v -1.1 3.3 2
v -0.3 1.2 2
v -0.3 3 2
v 0.9 3 2
v 0.9 3.3 2
v 1 0.9 2
v 1 1.2 2
v 1.7 0.3 2
v 1.7 3.7 2
v 2 0 2
v 2 4 2
v -1.7 0.3 1.9
v -1.7 3.7 1.9
v -1.1 0.9 1.9
v -1.1 3.3 1.9
v -0.3 1.2 1.9
v -0.3 3 1.9
v 0.9 3 1.9
v 0.9 3.3 1.9
v 1 0.9 1.9
v 1 1.2 1.9
v 1.7 0.3 1.9
v 1.7 3.7 1.9
v 1.9 0.9 1.3
v 1.9 3.2 1.3
v 2 0.9 1.3
v 2 3.2 1.3
v -1 3.9 1.1
v -1 4 1.1
v -0.8 0 1.1
v -0.8 0.1 1.1
v -0.7 3.9 1.1
v -0.7 4 1.1
v 0.8 3.9 1.1
v 0.8 4 1.1
v 1.1 0 1.1
v 1.1 0.1 1.1
v 1.2 3.9 1.1
v 1.2 4 1.1
v -2 1.1 0.9
v -2 1.4 0.9
v -1.9 1.1 0.9
v -1.9 1.4 0.9
v -2 2.8 0.8
v -2 3.1 0.8
v -1.9 2.8 0.8
v -1.9 3.1 0.8
v -2 1.4 -0.4
v -2 2.8 -0.4
v -1.9 1.4 -0.4
v -1.9 2.8 -0.4
v -0.7 3.9 -0.4
v -0.7 4 -0.4
v 0.8 3.9 -0.4
v 0.8 4 -0.4
v -0.8 0 -0.8
v -0.8 0.1 -0.8
v 0.3 0 -0.8
v 0.3 0.1 -0.8
v -1.7 0 -1.6
v -1.7 0.1 -1.6
v 1.7 0 -1.6
v 1.7 0.1 -1.6
v -2 0.3 -1.7
v -2 3.7 -1.7
v -1.9 0.3 -1.7
v -1.9 3.7 -1.7
v 1.9 0.3 -1.7
v 1.9 3.7 -1.7
v 2 0.3 -1.7
v 2 3.7 -1.7
v -1.7 3.9 -1.8
v -1.7 4 -1.8
v 1.7 3.9 -1.8
v 1.7 4 -1.8
v -2 0.3 1.7
v -2 3.7 1.7
v -1.9 0.3 1.7
v -1.9 3.7 1.7
v -1.7 0 1.7
v -1.7 0.1 1.7
v -1.7 3.9 1.7
v -1.7 4 1.7
v 1.7 0 1.7
v 1.7 0.1 1.7
v 1.7 3.9 1.7
v 1.7 4 1.7
v 1.9 0.3 1.7
v 1.9 3.7 1.7
v 2 0.3 1.7
v 2 3.7 1.7
v -0.8 0 0.8
v -0.8 0.1 0.8
v 0.3 0 0.8
v 0.3 0.1 0.8
v 1.9 1.2 0.6
v 1.9 2.9 0.6
v 2 1.2 0.6
v 2 2.9 0.6
v 1.9 2.9 -0.6
v 1.9 3.2 -0.6
v 2 2.9 -0.6
v 2 3.2 -0.6
v 1.9 0.9 -0.7
v 1.9 1.2 -0.7
v 2 0.9 -0.7
v 2 1.2 -0.7
v -2 1.1 -1
v -2 3.1 -1
v -1.9 1.1 -1
v -1.9 3.1 -1
v -1 3.9 -1
v -1 4 -1
v 1.2 3.9 -1
v 1.2 4 -1
v -0.8 0 -1.1
v -0.8 0.1 -1.1
v 1.1 0 -1.1
v 1.1 0.1 -1.1
v -1.7 0.3 -1.9
v -1.7 3.7 -1.9
v -1 1.1 -1.9
v -1 1.5 -1.9
v -1 2.9 -1.9
v -1 3.3 -1.9
v 0.2 1.5 -1.9
v 0.2 2.9 -1.9
v 0.9 1.1 -1.9
v 0.9 3.3 -1.9
v 1.7 0.3 -1.9
v 1.7 3.7 -1.9
v -2 0 -2
v -2 4 -2
v -1.7 0.3 -2
v -1.7 3.7 -2
v -1 1.1 -2
v -1 1.5 -2
v -1 2.9 -2
v -1 3.3 -2
v 0.2 1.5 -2
v 0.2 2.9 -2
v 0.9 1.1 -2
v 0.9 3.3 -2
v 1.7 0.3 -2
v 1.7 3.7 -2
v 2 0 -2
v 2 4 -2
v -2 0 2
v 2 0 2
v -1.7 0 1.7
v 1.7 0 1.7
v -0.8 0 1.1
v 1.1 0 1.1
v -0.8 0 0.8
v 0.3 0 0.8
v -0.8 0 -0.8
v 0.3 0 -0.8
v -0.8 0 -1.1
v 1.1 0 -1.1
v -1.7 0 -1.6
v 1.7 0 -1.6
v -2 0 -2
v 2 0 -2
v -1.7 0.1 1.7
v 1.7 0.1 1.7
v -0.8 0.1 1.1
v 1.1 0.1 1.1
v -0.8 0.1 0.8
v 0.3 0.1 0.8
v -0.8 0.1 -0.8
v 0.3 0.1 -0.8
v -0.8 0.1 -1.1
v 1.1 0.1 -1.1
v -1.7 0.1 -1.6
v 1.7 0.1 -1.6
v -1.1 0.9 2
v 1 0.9 2
v -1.1 0.9 1.9
v 1 0.9 1.9
v 1.9 0.9 1.3
v 2 0.9 1.3
v 1.9 0.9 -0.7
v 2 0.9 -0.7
v -2 1.1 0.9
v -1.9 1.1 0.9
v -2 1.1 -1
v -1.9 1.1 -1
v -1 1.1 -1.9
v 0.9 1.1 -1.9
v -1 1.1 -2
v 0.9 1.1 -2
v -2 2.8 0.8
v -1.9 2.8 0.8
v -2 2.8 -0.4
v -1.9 2.8 -0.4
v 1.9 2.9 0.6
v 2 2.9 0.6
v 1.9 2.9 -0.6
v 2 2.9 -0.6
v -1 2.9 -1.9
v 0.2 2.9 -1.9
v -1 2.9 -2
v 0.2 2.9 -2
v -0.3 3 2
v 0.9 3 2
v -0.3 3 1.9
v 0.9 3 1.9
v -1.7 3.7 2
v 1.7 3.7 2
v -1.7 3.7 1.9
v 1.7 3.7 1.9
v -2 3.7 1.7
v -1.9 3.7 1.7
v 1.9 3.7 1.7
v 2 3.7 1.7
v -2 3.7 -1.7
v -1.9 3.7 -1.7
v 1.9 3.7 -1.7
v 2 3.7 -1.7
v -1.7 3.7 -1.9
v 1.7 3.7 -1.9
v -1.7 3.7 -2
v 1.7 3.7 -2
v -1.7 0.3 2
v 1.7 0.3 2
v -1.7 0.3 1.9
v 1.7 0.3 1.9
v -2 0.3 1.7
v -1.9 0.3 1.7
v 1.9 0.3 1.7
v 2 0.3 1.7
v -2 0.3 -1.7
v -1.9 0.3 -1.7
v 1.9 0.3 -1.7
v 2 0.3 -1.7
v -1.7 0.3 -1.9
v 1.7 0.3 -1.9
v -1.7 0.3 -2
v 1.7 0.3 -2
v -0.3 1.2 2
v 1 1.2 2
v -0.3 1.2 1.9
v 1 1.2 1.9
v 1.9 1.2 0.6
v 2 1.2 0.6
v 1.9 1.2 -0.7
v 2 1.2 -0.7
v -2 1.4 0.9
v -1.9 1.4 0.9
v -2 1.4 -0.4
v -1.9 1.4 -0.4
v -1 1.5 -1.9
v 0.2 1.5 -1.9
v -1 1.5 -2
v 0.2 1.5 -2
v -2 3.1 0.8
v -1.9 3.1 0.8
v -2 3.1 -1
v -1.9 3.1 -1
v 1.9 3.2 1.3
v 2 3.2 1.3
v 1.9 3.2 -0.6
v 2 3.2 -0.6
v -1.1 3.3 2
v 0.9 3.3 2
v -1.1 3.3 1.9
v 0.9 3.3 1.9
v -1 3.3 -1.9
v 0.9 3.3 -1.9
v -1 3.3 -2
v 0.9 3.3 -2
v -1.7 3.9 1.7
v 1.7 3.9 1.7
v -1 3.9 1.1
v -0.7 3.9 1.1
v 0.8 3.9 1.1
v 1.2 3.9 1.1
v -0.7 3.9 -0.4
v 0.8 3.9 -0.4
v -1 3.9 -1
v 1.2 3.9 -1
v -1.7 3.9 -1.8
v 1.7 3.9 -1.8
v -2 4 2
v 2 4 2
v -1.7 4 1.7
v 1.7 4 1.7
v -1 4 1.1
v -0.7 4 1.1
v 0.8 4 1.1
v 1.2 4 1.1
v -0.7 4 -0.4
v 0.8 4 -0.4
v -1 4 -1
v 1.2 4 -1
v -1.7 4 -1.8
v 1.7 4 -1.8
v -2 4 -2
v 2 4 -2

# faces
f 3/2/1 2/2/1 1/2/1
f 4/2/1 2/2/1 3/2/1
f 7/2/1 6/2/1 5/2/1
f 8/2/1 6/2/1 7/2/1
f 10/2/1 6/2/1 8/2/1
f 11/2/1 10/2/1 9/2/1
f 12/2/1 6/2/1 10/2/1
f 12/2/1 10/2/1 11/2/1
f 13/2/1 3/2/1 1/2/1
f 14/2/1 2/2/1 4/2/1
f 15/2/1 13/2/1 1/2/1
f 15/2/1 14/2/1 13/2/1
f 16/2/1 2/2/1 14/2/1
f 16/2/1 14/2/1 15/2/1
f 19/1/1 18/1/1 17/1/1
f 20/1/1 18/1/1 19/1/1
f 21/1/1 19/1/1 17/1/1
f 23/1/1 22/1/1 21/1/1
f 24/1/1 22/1/1 23/1/1
f 25/1/1 23/1/1 21/1/1
f 26/1/1 18/1/1 20/1/1
f 27/1/1 25/1/1 21/1/1
f 27/1/1 26/1/1 25/1/1
f 27/1/1 21/1/1 17/1/1
f 28/1/1 18/1/1 26/1/1
f 28/1/1 26/1/1 27/1/1
f 31/2/1 30/2/1 29/2/1
f 32/2/1 30/2/1 31/2/1
f 35/2/1 34/2/1 33/2/1
f 36/2/1 34/2/1 35/2/1
f 39/2/1 38/2/1 37/2/1
f 40/2/1 38/2/1 39/2/1
f 43/2/1 42/2/1 41/2/1
f 44/2/1 42/2/1 43/2/1
f 49/2/1 46/2/1 45/2/1
f 50/2/1 46/2/1 49/2/1
f 51/2/1 48/2/1 47/2/1
f 52/2/1 48/2/1 51/2/1
f 55/2/1 54/2/1 53/2/1
f 56/2/1 54/2/1 55/2/1
f 59/2/1 58/2/1 57/2/1
f 60/2/1 58/2/1 59/2/1
f 63/2/1 62/2/1 61/2/1
f 64/2/1 62/2/1 63/2/1
f 67/2/1 66/2/1 65/2/1
f 68/2/1 66/2/1 67/2/1
f 73/2/1 70/2/1 69/2/1
f 74/2/1 70/2/1 73/2/1
f 75/2/1 72/2/1 71/2/1
f 76/2/1 72/2/1 75/2/1
f 79/2/1 78/2/1 77/2/1
f 80/2/1 78/2/1 79/2/1
f 81/2/2 82/2/2 83/2/2
f 83/2/2 82/2/2 84/2/2
f 85/2/2 86/2/2 89/2/2
f 89/2/2 86/2/2 90/2/2
f 87/2/2 88/2/2 91/2/2
f 91/2/2 88/2/2 92/2/2
f 93/2/2 94/2/2 95/2/2
f 95/2/2 94/2/2 96/2/2
f 97/2/2 98/2/2 99/2/2
f 99/2/2 98/2/2 100/2/2
f 101/2/2 102/2/2 103/2/2
f 103/2/2 102/2/2 104/2/2
f 107/2/2 108/2/2 109/2/2
f 109/2/2 108/2/2 110/2/2
f 105/2/2 106/2/2 111/2/2
f 111/2/2 106/2/2 112/2/2
f 113/2/2 114/2/2 115/2/2
f 115/2/2 114/2/2 116/2/2
f 117/2/2 118/2/2 119/2/2
f 119/2/2 118/2/2 120/2/2
f 121/2/2 122/2/2 123/2/2
f 123/2/2 122/2/2 124/2/2
f 125/3/2 126/3/2 127/3/2
f 127/3/2 126/3/2 128/3/2
f 128/3/2 126/3/2 130/3/2
f 129/3/2 130/3/2 131/3/2
f 131/3/2 130/3/2 132/3/2
f 125/3/2 127/3/2 133/3/2
f 132/3/2 130/3/2 134/3/2
f 125/3/2 133/3/2 135/3/2
f 133/3/2 134/3/2 135/3/2
f 134/3/2 130/3/2 136/3/2
f 135/3/2 134/3/2 136/3/2
f 130/3/2 126/3/2 136/3/2
f 137/2/2 138/2/2 139/2/2
f 139/2/2 138/2/2 140/2/2
f 141/2/2 142/2/2 143/2/2
f 143/2/2 142/2/2 144/2/2
f 141/2/2 143/2/2 145/2/2
f 141/2/2 145/2/2 147/2/2
f 145/2/2 146/2/2 147/2/2
f 147/2/2 146/2/2 148/2/2
f 137/2/2 139/2/2 149/2/2
f 140/2/2 138/2/2 150/2/2
f 137/2/2 149/2/2 151/2/2
f 149/2/2 150/2/2 151/2/2
f 150/2/2 138/2/2 152/2/2
f 151/2/2 150/2/2 152/2/2
f 155/2/3 154/2/3 153/2/3
f 156/2/3 154/2/3 155/2/3
f 159/2/3 158/2/3 157/2/3
f 160/2/3 158/2/3 159/2/3
f 161/2/3 158/2/3 160/2/3
f 162/2/3 158/2/3 161/2/3
f 163/2/3 159/2/3 157/2/3
f 164/2/3 159/2/3 163/2/3
f 165/2/3 155/2/3 153/2/3
f 166/2/3 154/2/3 156/2/3
f 167/2/3 165/2/3 153/2/3
f 167/2/3 166/2/3 165/2/3
f 168/2/3 154/2/3 166/2/3
f 168/2/3 166/2/3 167/2/3
f 171/3/3 170/3/3 169/3/3
f 172/3/3 170/3/3 171/3/3
f 175/3/3 174/3/3 173/3/3
f 176/3/3 170/3/3 172/3/3
f 177/3/3 171/3/3 169/3/3
f 178/3/3 176/3/3 175/3/3
f 178/3/3 175/3/3 173/3/3
f 179/3/3 177/3/3 169/3/3
f 179/3/3 178/3/3 177/3/3
f 180/3/3 176/3/3 178/3/3
f 180/3/3 178/3/3 179/3/3
f 180/3/3 170/3/3 176/3/3
f 183/2/3 182/2/3 181/2/3
f 184/2/3 182/2/3 183/2/3
f 189/2/3 186/2/3 185/2/3
f 190/2/3 186/2/3 189/2/3
f 193/2/3 188/2/3 187/2/3
f 194/2/3 188/2/3 193/2/3
f 195/2/3 192/2/3 191/2/3
f 196/2/3 192/2/3 195/2/3
f 199/2/3 198/2/3 197/2/3
f 200/2/3 198/2/3 199/2/3
f 203/2/3 202/2/3 201/2/3
f 204/2/3 202/2/3 203/2/3
f 207/2/3 206/2/3 205/2/3
f 208/2/3 206/2/3 207/2/3
f 211/2/3 210/2/3 209/2/3
f 212/2/3 210/2/3 211/2/3
f 215/2/3 214/2/3 213/2/3
f 216/2/3 214/2/3 215/2/3
f 219/2/3 218/2/3 217/2/3
f 220/2/3 218/2/3 219/2/3
f 223/2/3 222/2/3 221/2/3
f 224/2/3 222/2/3 223/2/3
f 227/2/3 226/2/3 225/2/3
f 228/2/3 226/2/3 227/2/3
f 231/2/3 230/2/3 229/2/3
f 232/2/3 230/2/3 231/2/3
f 233/2/4 234/2/4 235/2/4
f 235/2/4 234/2/4 236/2/4
f 237/2/4 238/2/4 241/2/4
f 241/2/4 238/2/4 242/2/4
f 239/2/4 240/2/4 243/2/4
f 243/2/4 240/2/4 244/2/4
f 245/2/4 246/2/4 247/2/4
f 247/2/4 246/2/4 248/2/4
f 249/2/4 250/2/4 251/2/4
f 251/2/4 250/2/4 252/2/4
f 253/2/4 254/2/4 255/2/4
f 255/2/4 254/2/4 256/2/4
f 257/2/4 258/2/4 259/2/4
f 259/2/4 258/2/4 260/2/4
f 261/2/4 262/2/4 263/2/4
f 263/2/4 262/2/4 264/2/4
f 265/2/4 266/2/4 267/2/4
f 267/2/4 266/2/4 268/2/4
f 269/2/4 270/2/4 271/2/4
f 271/2/4 270/2/4 272/2/4
f 273/2/4 274/2/4 275/2/4
f 275/2/4 274/2/4 276/2/4
f 277/1/4 278/1/4 279/1/4
f 279/1/4 278/1/4 280/1/4
f 280/1/4 278/1/4 281/1/4
f 281/1/4 278/1/4 282/1/4
f 280/1/4 281/1/4 283/1/4
f 283/1/4 281/1/4 284/1/4
f 277/1/4 279/1/4 285/1/4
f 282/1/4 278/1/4 286/1/4
f 277/1/4 285/1/4 287/1/4
f 285/1/4 286/1/4 287/1/4
f 286/1/4 278/1/4 288/1/4
f 287/1/4 286/1/4 288/1/4
f 289/2/4 290/2/4 291/2/4
f 291/2/4 290/2/4 292/2/4
f 293/2/4 294/2/4 297/2/4
f 295/2/4 296/2/4 298/2/4
f 293/2/4 297/2/4 299/2/4
f 297/2/4 298/2/4 299/2/4
f 298/2/4 296/2/4 300/2/4
f 299/2/4 298/2/4 300/2/4
f 289/2/4 291/2/4 301/2/4
f 292/2/4 290/2/4 302/2/4
f 289/2/4 301/2/4 303/2/4
f 301/2/4 302/2/4 303/2/4
f 302/2/4 290/2/4 304/2/4
f 303/2/4 302/2/4 304/2/4
f 307/2/5 306/2/5 305/2/5
f 308/2/5 306/2/5 307/2/5
f 311/2/5 310/2/5 309/2/5
f 312/2/5 310/2/5 311/2/5
f 314/2/5 310/2/5 312/2/5
f 315/2/5 314/2/5 313/2/5
f 316/2/5 310/2/5 314/2/5
f 316/2/5 314/2/5 315/2/5
f 317/2/5 307/2/5 305/2/5
f 318/2/5 306/2/5 308/2/5
f 319/2/5 317/2/5 305/2/5
f 319/2/5 318/2/5 317/2/5
f 320/2/5 306/2/5 318/2/5
f 320/2/5 318/2/5 319/2/5
f 323/1/5 322/1/5 321/1/5
f 324/1/5 322/1/5 323/1/5
f 325/1/5 323/1/5 321/1/5
f 327/1/5 325/1/5 321/1/5
f 327/1/5 326/1/5 325/1/5
f 328/1/5 326/1/5 327/1/5
f 329/1/5 327/1/5 321/1/5
f 330/1/5 322/1/5 324/1/5
f 331/1/5 329/1/5 321/1/5
f 331/1/5 330/1/5 329/1/5
f 332/1/5 322/1/5 330/1/5
f 332/1/5 330/1/5 331/1/5
f 335/2/5 334/2/5 333/2/5
f 336/2/5 334/2/5 335/2/5
f 339/2/5 338/2/5 337/2/5
f 340/2/5 338/2/5 339/2/5
f 343/2/5 342/2/5 341/2/5
f 344/2/5 342/2/5 343/2/5
f 347/2/5 346/2/5 345/2/5
f 348/2/5 346/2/5 347/2/5
f 351/2/5 350/2/5 349/2/5
f 352/2/5 350/2/5 351/2/5
f 355/2/5 354/2/5 353/2/5
f 356/2/5 354/2/5 355/2/5
f 359/2/5 358/2/5 357/2/5
f 360/2/5 358/2/5 359/2/5
f 363/2/5 362/2/5 361/2/5
f 364/2/5 362/2/5 363/2/5
f 367/2/5 366/2/5 365/2/5
f 368/2/5 366/2/5 367/2/5
f 373/2/5 370/2/5 369/2/5
f 374/2/5 370/2/5 373/2/5
f 375/2/5 372/2/5 371/2/5
f 376/2/5 372/2/5 375/2/5
f 379/2/5 378/2/5 377/2/5
f 380/2/5 378/2/5 379/2/5
f 381/2/6 382/2/6 383/2/6
f 383/2/6 382/2/6 384/2/6
f 385/2/6 386/2/6 389/2/6
f 389/2/6 386/2/6 390/2/6
f 387/2/6 388/2/6 391/2/6
f 391/2/6 388/2/6 392/2/6
f 393/2/6 394/2/6 395/2/6
f 395/2/6 394/2/6 396/2/6
f 397/2/6 398/2/6 399/2/6
f 399/2/6 398/2/6 400/2/6
f 401/2/6 402/2/6 403/2/6
f 403/2/6 402/2/6 404/2/6
f 405/2/6 406/2/6 407/2/6
f 407/2/6 406/2/6 408/2/6
f 409/2/6 410/2/6 411/2/6
f 411/2/6 410/2/6 412/2/6
f 413/2/6 414/2/6 415/2/6
f 415/2/6 414/2/6 416/2/6
f 417/2/6 418/2/6 419/2/6
f 419/2/6 418/2/6 420/2/6
f 421/2/6 422/2/6 423/2/6
f 423/2/6 422/2/6 424/2/6
f 425/2/6 426/2/6 427/2/6
f 427/2/6 426/2/6 428/2/6
f 429/3/6 430/3/6 431/3/6
f 431/3/6 430/3/6 432/3/6
f 432/3/6 430/3/6 433/3/6
f 433/3/6 430/3/6 434/3/6
f 432/3/6 433/3/6 435/3/6
f 435/3/6 433/3/6 436/3/6
f 429/3/6 431/3/6 437/3/6
f 434/3/6 430/3/6 438/3/6
f 429/3/6 437/3/6 439/3/6
f 437/3/6 438/3/6 439/3/6
f 438/3/6 430/3/6 440/3/6
f 439/3/6 438/3/6 440/3/6
f 441/2/6 442/2/6 443/2/6
f 443/2/6 442/2/6 444/2/6
f 445/2/6 446/2/6 449/2/6
f 447/2/6 448/2/6 450/2/6
f 445/2/6 449/2/6 451/2/6
f 449/2/6 450/2/6 451/2/6
f 450/2/6 448/2/6 452/2/6
f 451/2/6 450/2/6 452/2/6
f 441/2/6 443/2/6 453/2/6
f 444/2/6 442/2/6 454/2/6
f 441/2/6 453/2/6 455/2/6
f 453/2/6 454/2/6 455/2/6
f 454/2/6 442/2/6 456/2/6
f 455/2/6 454/2/6 456/2/6
